<svg xmlns="http://www.w3.org/2000/svg" style="display: none;">

    <symbol id="key" viewBox="0 0 70 70">
        <path d="M31.69,14.26c-.81-1.24-.7-2.76-1.21-4.08-.63-1.64-1.59-2.57-3.34-1.2a153,153,0,0,1,2.65,19.43C30.22,35,32,41.33,33,47.9c-3.23.28-5.51,1.57-6.8,4.28-1.47,3.1.2,6.82,3.59,8.41,4.28,2,8.23,1,12-1.25a6,6,0,0,0,2.53-6.19C44,50.86,43,48.47,39.86,48s-3.38-3.43-3.52-5.71a89,89,0,0,0-2.47-17c-.47-1.85.66-3.19,3.35-3.52a26.89,26.89,0,0,1,3.59-.6c1.11,0,2.12-.45,2.17-1.87s-.46-2-1.93-2a1.77,1.77,0,0,1-1.44-.68"/><path d="M39,16.1c2.39-1.08,2.53-1.4,1.68-3.84-3.13.1-6.27.16-8.88,2.28"/><path d="M33.22,50.3c-1.42.59-3,1-3.8,2.43-.48.83-.94,1.84-.06,2.86,1.67,1.94,8,2.8,9.88.73,1.29-1.42,1.38-3.46-.3-4.27s-3.31-2.28-5.48-1.75"/>
    </symbol>

    <symbol id="pencil" viewBox="0 0 36.13 48.43">
        <path d="M22.63,6.56c1-2.47,2.35-4.45,5.26-5.25,1.78-.49,3.1-.53,4.34.82,1,1.08,2,2.2,2.9,3.24a4.21,4.21,0,0,1-.75,2.5c-6.8,8.9-12.11,18.76-18.27,28.07-1.37,2.08-3,4-4.54,6-.68.89-8.92,6.69-10,5.25-.84-1.12-.57-2.61-.34-4C2.3,36.53,6.64,31.53,9.69,25.89c3.66-6.76,8.48-12.75,12.94-19"/><path d="M26.47,10.28c-3.35,5-7.24,9.59-10,14.91S10.86,35.44,8,40.52"/><path d="M23.35,6.44A27.25,27.25,0,0,0,30.55,12"/><path d="M3.43,37.64C6.1,38.92,8.09,41,10.15,43"/><line x1="1.08" y1="44.17" x2="3.43" y2="46.3"/>
    </symbol>

    <symbol id="add_button" viewBox="0 0 54.52 58.12">
        <path d="M51.76,17.8C49.35,11,44.64,6.11,38.34,2.67A17.74,17.74,0,0,0,32.09,1h-.24c-2.16.4-4.33.75-6.47,1.21-6.67,1.43-10.93,6-14.64,11.27C8.23,17.06,6.09,21,5.58,25.26a41.8,41.8,0,0,0-.32,4.95C5.32,37.42,7.78,44,16,48.77a24.86,24.86,0,0,0,17.31,3.41A24.79,24.79,0,0,0,44.67,47.5c-.15.23-.32.42-.48.63A19.52,19.52,0,0,0,50,41.49,28.54,28.54,0,0,0,51.76,17.8Z"/><path d="M16,49C7.68,44.15,5.26,37.52,5.26,30.21A42.26,42.26,0,0,1,5.58,25c.51-4.23,2.65-8.19,5.16-11.77.54-.76,1.09-1.5,1.65-2.23A37.38,37.38,0,0,0,6.48,17.8C4,21.38,1.83,25.34,1.32,29.58c-1.11,9.23.25,17.81,10.42,23.77a24.86,24.86,0,0,0,17.31,3.41c6.33-1,11.62-3.78,15.14-8.63a25.28,25.28,0,0,1-10.88,4.31A24.86,24.86,0,0,1,16,49Z"/><path d="M45.67,25.49c-.18-1.1-.09-2.25-.21-3.38-.14-1.33-.48-1.75-2.07-1.54a58.53,58.53,0,0,1-9.19.48c-.71-3.49-1.05-6.82-1.49-10.46-2.07.51-4.1.21-6,.37-.71,1.85,0,3.55,0,5.23s.15,3.1.16,4.66c0,.44-.18,1,.67.84h-.89C22.8,22.26,19,23,15.18,23.32c-1.68.16-2.27.69-2.24,2.18a9.51,9.51,0,0,0,1,4.71c4.17-.67,8.28-.64,12.25-1.54a1.83,1.83,0,0,1,2.43,1.7c.41,2.87.75,5.77.9,8.66.18,3.69,1.73,4.86,5.4,3.8a11.66,11.66,0,0,0,1.21-.5,44.63,44.63,0,0,0-.84-13.52l.31.28c2.67-.39,5.39-.31,8.06-.83C46,27.81,46,27.72,45.67,25.49Z"/>
    </symbol>

    <symbol id="close" viewBox="0 0 33.96 32.78">
        <path d="M30.16,6.66c-.89-.91-1.57-2-2.42-3-1-1.14-1.57-1.32-2.82-.13a59,59,0,0,1-7.69,6.17C14.31,7,11.81,4.08,9,1,7.55,2.76,5.59,3.75,4,5.12c.6,2.15,2.31,3.29,3.46,4.82s2.18,2.77,3.22,4.19c.29.41.51,1,1.14.36l-.78.56C8.1,18,5.26,21,2.16,23.69.8,24.89.64,25.75,1.65,27.1a11.35,11.35,0,0,0,4,3.74c3.2-3.22,6.79-5.75,9.66-9.07,1.09-1.26,2.32-.92,3.23.05,2.26,2.4,4.48,4.85,6.52,7.43,2.6,3.29,4.71,3.4,7.22.13A13.36,13.36,0,0,0,33,28.17a53.37,53.37,0,0,0-9.68-12l.46.07c2.07-2,4.49-3.67,6.47-5.8C32,8.6,32,8.48,30.16,6.66Z"/>
    </symbol>

    <symbol id="title" viewBox="0 0 1087.28 379.07">
        <path d="M943.09,77.1c-5.41,16.22-11.53,31.47-16,47.33-6.47,23.1-9.21,47-15.44,70.16-6.5,24.1-13,48.18-18.94,72.43-4.82,19.87-6.73,40.36-11.67,60.23-3.09,12.43-6.48,24.85-13.15,36-3.54,5.92-7.67,7.75-12.73,6.46-2.43-.62-4-2-4.24-4.34-2.15-19.27-8.68-37.64-11.56-56.72-5.5-36.44-16.65-71.67-23-107.89-8.08-45.88-17.48-91.57-23-137.84-2.18-18.34-5-36.57-7.21-54.89-.38-3.15.4-6.22,3.55-7.58s5.36.76,7.11,3.15c2.29,3.11,4.51,6.37,4.71,10.33.57,11.54,3.88,22.61,5.58,33.95,3.45,23,5.62,46.31,10.21,69.11,7.57,37.7,12.47,75.9,21,113.36,7.91,34.9,14.4,70.1,23.19,104.79,0,.13.24.22.53.45,2.58-3.86,1.72-8.34,2.23-12.47,2.36-19,7.56-37.47,11.37-56.19,4.76-23.45,7.7-47.27,12.22-70.78,4-20.92,11.32-41,16.69-61.64C910.37,112,914.65,89,919.83,66.34c3.46-15.2,10.32-29.16,16.44-43.37a15.66,15.66,0,0,1,2.94-4c.82-.91,2.74-1.49,3.08-.62,1.81,4.64,7.85,5.27,9,10.8C956,51.42,963.58,73.05,965.23,96c1.18,16.47,5.89,32.42,8.2,48.7,5.86,41.27,15.44,81.76,24.07,122.47,2.28,10.73,3.74,21.65,6.63,32.26,1.21,4.48,2.56,8.91,3.85,13.37.36,1.24.48,3,2.07,3,1.25,0,1.49-1.58,2-2.61,3.32-6.85,4.31-14.28,5.64-21.65,8-44.34,13.72-89.06,23.3-133.16,7.26-33.46,12.49-67.37,19.71-100.88,3.22-15,7.32-29.71,9.36-44.93,1-7.11,4-9.69,10.55-10.37,4.57-.48,6.3,1,6.58,5.85.58,9.77-1.83,19.19-3.68,28.63-4.22,21.54-10.66,42.64-13.7,64.38-5.19,37.14-15.53,73.22-22.07,110.05-5.94,33.41-12.12,66.77-19.72,99.84a306,306,0,0,1-16.16,49.28,30.48,30.48,0,0,1-2.28,4.44c-1.09,1.72-2.51,3.37-4.7,3.3-2.47-.08-2.86-2.43-3.68-4.21-9.9-21.53-14.56-44.47-19-67.59-5.93-30.89-13.8-61.41-18.73-92.49-3-18.88-3.75-38.13-6.85-57-3.51-21.33-5.18-43-10.85-63.95C945.32,81,945.26,79.1,943.09,77.1Zm-77,277a148.32,148.32,0,0,0,9.59-31.05c4.1-20.88,7.09-42,11.82-62.73,5.84-25.61,14-50.67,19.7-76.34,4-18.17,7.45-36.49,11.56-54.65,4.94-21.78,15-42,19.92-63.81a11.19,11.19,0,0,1,1.12-2.76,2.53,2.53,0,0,1,2.88-1.49c1,.24,2.16,1.17,1.92,2-1.63,5.78,1.48,9.67,5,13.48.3.33.3.94.44,1.42,6.71,23.28,8.94,47.39,12.9,71.17,3,18.2,3.93,36.75,6.93,55,4.77,28.9,11.88,57.36,17.64,86.07,4.26,21.22,7.8,42.58,15.86,62.81.52,1.29.4,3.51,2.28,3.44,1.64-.06,1.93-2.1,2.44-3.44,5.19-13.7,10.35-27.48,13.6-41.74,7.62-33.39,13.88-67.05,19.57-100.84,6.46-38.36,17.36-75.84,23.18-114.38,3.72-24.65,11.57-48.5,15.73-73.11.66-3.93,1.72-7.81,1.51-11.85,0-1,0-2.25-1.35-2.24-.62,0-1.42.8-1.83,1.43a11.14,11.14,0,0,0-1.49,4.72A120.71,120.71,0,0,1,1075,27.49c-7.17,28.57-12.79,57.47-18.32,86.38-4.63,24.17-9.18,48.36-14.56,72.38-6.79,30.37-9.8,61.41-16.1,91.87-2.78,13.46-3.36,27.49-9.79,40.08-1.28,2.52-2,5.62-5.6,5.56s-5.37-2.49-6.48-5.45c-2.23-5.91-4.73-11.77-6.35-17.86-6-22.52-9.47-45.6-14.89-68.27-7.08-29.63-11.55-59.77-16.25-89.87-2.16-13.79-6-27.35-6.86-41.33C958.3,77.92,951.41,55.92,947,33.44c-.34-1.74-.66-3.58-3.26-3.68-2.26-.08-3.22,1-4.09,2.84-5.81,12.38-11,25-14,38.37-4.93,22.25-9.06,44.71-15,66.69-7.25,26.79-16.34,53-20.2,80.73a597.34,597.34,0,0,1-15.33,75.74c-4.58,16.7-5.27,34.16-9.24,51C865.21,347.72,864.5,350.25,866.14,354.11ZM792,14.39c3.09,16.71,4.35,33.66,6.64,50.45,6.05,44.53,14.89,88.61,23,132.8,6.86,37.49,18.69,73.91,24.22,111.71,2.34,16,8.11,31.29,9.51,47.46a5.57,5.57,0,0,0,3.12,4.81c.87.43,1.84,1.11,2.8.52,1.32-.83.65-2,.28-3.1-3.41-10.27-5.49-20.88-8.16-31.34-7.87-30.83-13.34-62.16-20.41-93.16-8.65-37.94-13.37-76.68-21-114.89-4.64-23.29-6.8-47.08-10.26-70.62-1.69-11.51-5.06-22.75-5.4-34.49a11.34,11.34,0,0,0-1.25-3.76c-.33-.77-.91-1.47-1.89-1.3s-1.17,1-1.18,1.91S792,13.39,792,14.39Z"/><path d="M5.79,287.48c-.3-19.26-2.32-41.49-3.72-63.75a69.52,69.52,0,0,1-.24-10c1.58-19-1-37.92-1.64-56.87A338.42,338.42,0,0,1,1.33,116c1.28-15.06-.27-30.27.44-45.42C2.38,57.73,3.28,45,7,32.59c5.64-19,8.84-20.16,27.37-18.73,30.72,2.37,60.93,8.87,88.2,24.85,12,7,22.21,15.51,29.55,27.62,17.59,29,26,60.49,24.24,94.21-1.85,36.21-3.52,72.55-12.23,108-3.78,15.37-8.43,30.48-15,45-2.74,6.07-7.34,10.65-11.64,15.51-17.39,19.65-39.19,32.83-63,43-8.39,3.58-17.28,4.87-26.31,5.25-6.31.26-12.59,0-18.84,1.68-5.26,1.42-16-7.1-17.45-13.31A150.38,150.38,0,0,1,8,339.45C7.29,323.15,5.31,306.91,5.79,287.48ZM13,32.63c-1.38,1.22-1.4,2.94-1.89,4.46C7.56,48.2,7.68,59.74,7.15,71.2c-.89,19,1.23,38-1,56.92a89.09,89.09,0,0,0-.45,13c.41,15.31,1,30.62,2.48,45.87,1.33,13.62-.56,27.25.71,40.94,3.13,33.66,3.08,67.52,5.3,101.25a245.36,245.36,0,0,0,4,33.19c1,4.82,4,8.75,8.47,8.48,14.54-.88,29.58,1.07,43.46-4.75,20-8.39,39.57-17.67,54.82-33.88,6.16-6.54,13.54-12.1,17.6-20.31,6.68-13.48,10.67-28,14.49-42.46.14-.52.63-1.23-.51-1.71-3.49,8.08-6.72,16.27-10.51,24.2-7.52,15.73-17.24,29.37-33.31,38C88.7,342.65,63.3,351.63,38,360.82a26,26,0,0,1-4.37,1,2.93,2.93,0,0,1-3.41-1.47c-.71-1.41,0-2.57,1-3.58,1.93-1.95,4.44-2.9,6.94-3.84,21.61-8.19,43.5-15.48,64.47-25.57,18-8.67,29.12-22.12,38.14-39.11,16.22-30.58,17.66-63.85,19-97.1,1-24.43-3-48.5-9.45-72-6.2-22.73-17.55-42.58-36.63-57C86.77,41.91,55.28,32.89,22.91,26.34c-3-.61-3.77.83-3.86,3.52-.24,7.49-1,15-.65,22.47.55,12.32,1.07,24.65.42,37-.72,14-1.86,27.91-1.73,41.93.18,19.14,1.76,38.29.13,57.45a35.27,35.27,0,0,0,.22,6.49c3.25,31.66,4.56,63.42,4.79,95.24.13,18.14-1,36.33,1.71,54.4a19.24,19.24,0,0,1-.34,8.43c-.33,1.09-.7,2.39-2.26,2.21s-1.68-1.38-1.82-2.59c-.92-8.27-2.63-16.53-2.66-24.8-.16-41.64.2-83.29-4.12-124.78-1.7-16.33.7-32.61,0-48.93-.55-12-1.52-24.06-.58-36C14.27,91.26,13.55,64.11,13.76,37,13.78,35.55,14.26,34,13,32.63Zm38.92-7.41a6.64,6.64,0,0,0,4.3,2.83A276.4,276.4,0,0,1,87.43,40c38,16.65,62.37,44.48,70.17,85.84.37,2,.9,3.89,1.32,5.84s.62,3.92,2.62,6.33c-1.78-18.13-3-35.25-8.22-51.69-7.22-22.59-20.7-38.8-45-44.14C101.67,40.7,95,38.9,88.94,35.7,77.66,29.7,65.16,28.61,51.91,25.22Z"/><path d="M285.74,294.29c-1.65,7.09-1.68,14.06-1.61,21a320.87,320.87,0,0,1-1.86,40.89c-.2,1.7.36,4.3-2.33,4.14-2.45-.15-2.14-2.63-2.16-4.39-.32-20.49.07-41,1.35-61.43.82-13.16.79-26.3.78-39.46-.06-39.16-.22-78.32,0-117.47.08-15.31.94-30.62,1.55-45.93.41-10.2-1.71-20.22-2-30.37q-.49-16-.85-32c-.06-2.87,1.1-4.83,3.85-6.35,15.05-8.31,31.27-12,48.27-12.82A97,97,0,0,1,352.56,12c25,4.46,48.81,11.69,68.07,29.72,11.57,10.84,15.61,24.77,18.53,39.47,1.79,9,.95,18-1.1,26.76-3.92,16.72-8.47,33.26-19.38,47.17A57,57,0,0,1,404.86,168c-21,13.6-43.62,22.74-68.66,25.34-5.53.57-5.54,1-3.12,5.88,10.68,21.47,23.06,42,34.15,63.29,11,21,21.94,42.27,37.71,60.48,6.08,7,11.16,14.94,16.45,22.62,3.58,5.21,1.66,9.13-4.58,9.57a55.45,55.45,0,0,1-11.45-.28c-2.81-.39-7.14-.41-4.43-5.69.77-1.49-.86-2.72-1.76-3.87C372.33,311.6,349,275.67,331.73,236a208.1,208.1,0,0,0-17.61-32.48c-2.07-3.09-3.51-6.48-7.76-7.9-2.66-.89-3.16-4.76-3-7.45a8.89,8.89,0,0,1,6.07-7.9c6-2.25,12.33-2.61,18.61-3.32,36.31-4.14,64.29-21.83,83-53,9.15-15.31,9.41-32.71,3.77-49.35-4.25-12.52-13.71-21.9-25.35-27.92-19.08-9.88-39.14-16.79-61.23-15.41-8.87.56-17.34,3.19-26.1,4.24-2.91.35-2.79,2.87-2.85,5.06-.21,8-.54,16-.59,24-.1,19.14-1.49,38.24-.91,57.44.89,29.12-.49,58.33-2.7,87.33a819.66,819.66,0,0,0-.77,112.24c.69,11.44,2.51,22.82,2.84,34.31a24.8,24.8,0,0,1-1.07,8.39,6.18,6.18,0,0,1-9.3,3.27c-1.71-1.15-2.48-3.06-.43-3.89,6-2.43,4-7.44,3.89-11.51a137.39,137.39,0,0,0-1.58-18.89c-1.8-11.58-1.88-23.21-2-34.87C286.61,297.07,286.89,295.69,285.74,294.29Zm59.89-111.2c.87.78,1.67.3,2.46.21C367.48,181,384,171.51,400.5,162.13c5.11-2.91,9.21-7.07,12.89-11.69,9.85-12.38,13.65-27.27,17.31-42.13a63.94,63.94,0,0,0,1.12-27.24c-3-16.27-9.39-29.91-23.59-40.1C396,32.21,383.05,26.52,368.75,22.59c-28.16-7.75-55.71-9-82.65,4.52-2.68,1.34-3.4,2.4-3.24,5.51,1.08,21.26,3.65,42.5,3.09,63.78-1.15,43-.74,86-.83,129q0,6.15,0,12.3l1.32,0c.41-2.46,1-4.9,1.2-7.38,2.57-28.37,3.19-56.88,3.83-85.31.78-34.14,1.57-68.27,2.72-102.39.1-3-.17-5.24-4.05-3.74a2.11,2.11,0,0,1-3-1c-.72-1.5.17-2.59,1.35-3.35a14.35,14.35,0,0,1,3.13-1.51A147.83,147.83,0,0,1,329.12,25c22.88-1.69,43.82,5.52,63.64,15.85,13.16,6.87,23.73,17.38,28.57,31.57a67.71,67.71,0,0,1-4.37,55.2c-10.77,20.27-27.9,34.14-47.85,44.66C361.53,176.32,353.51,179.51,345.63,183.09Zm-29.81,10.37c-.43,1.81.67,2.77,1.37,3.82,9.78,14.55,17.65,30.13,25.11,45.95a401.55,401.55,0,0,0,28.52,51.5c11.89,17.87,24.91,35,37.44,52.41a11.7,11.7,0,0,0,1.58,1.92,3.19,3.19,0,0,0,4.15.3c1.56-1.13.29-2.44-.42-3.45-4.34-6.1-8.26-12.59-13.22-18.16-16.16-18.14-26.87-39.74-37.75-61-10.63-20.73-22.73-40.69-32.49-61.86-1-2.25-2.69-4.21-3.89-6.39C323.9,194.32,320.17,193.38,315.82,193.46Z"/><path d="M625,36.6a5.88,5.88,0,0,0-3.88,4.25c-7.57,25.68-16.69,51.07-20.25,77.66-4,29.57-11.48,58.48-15.21,88-2.74,21.64-4.76,43.38-9.56,64.66-5.68,25.16-11.63,50.26-19,75a41.35,41.35,0,0,1-5.52,12.24c-1.08,1.54-2.53,3.13-4.54,1.84s-.5-2.84.28-4.28c2.64-4.88,4-10.25,5.39-15.53,10.06-37.45,20.61-74.9,24.47-113.57,2.76-27.62,9.36-54.42,14-81.62,1.26-7.34,2.18-14.74,2.83-22.2-2.67,5.33-3.19,11.21-4.34,16.9-7,35.08-14.59,70.06-20.86,105.27-4.88,27.37-9.82,54.7-15.68,81.88-1.76,8.16-4.75,15.94-7.27,23.86-.55,1.73-.83,4.64-3.59,3.8-2.49-.76-1.74-3.39-1.22-5.23,4.69-16.85,8-34,11.64-51.1,7-33.21,11.72-66.87,19-100.05C584,142,595,85.29,612.26,30.07c2.38-7.57,5.53-13.84,11.25-19.14,4.44-4.12,7.55-4,11,1,5.45,7.87,7.67,17,9.54,26.12,3.29,16.12,6.92,32.15,10.6,48.18,5.26,23,11.55,45.71,14.71,69.25,2.82,21,10,41.42,12.94,62.52,4.08,29.17,10.3,58,13.89,87.24,1.72,14,4.86,27.85,7.49,41.75.92,4.81.51,9.09-2.59,13.14-2.73,3.57-5.48,4.19-8.69,1a25.77,25.77,0,0,1-6.54-11.1c-2.87-9.54-6.18-18.89-7.83-28.86-2.59-15.58-6.9-30.86-9.64-46.42-2.27-13-5.09-25.78-8.29-38.54-1-3.87-2.41-4.5-5.83-2.85a31.82,31.82,0,0,1-13.62,2.75c-17,.11-34,.48-50.91,1.48-1.27.08-2.39-.05-2.81-1.43a2.91,2.91,0,0,1,1.46-3.42c2.32-1.51,5-1.75,7.66-1.8q23.48-.41,47-.91c2.92-.07,8.11-.07,7.84-2.13-.44-3.4-5-1.69-7.64-1.54-15.63.91-31.25,2-46.92,2-2,0-3.93.65-5.91.83-1.41.13-3.31.74-3.76-1.32-.42-1.88,1.35-2.48,2.7-3.05a24.36,24.36,0,0,1,8.76-1.77c15.15-.48,30.27-1.58,45.36-3a21.49,21.49,0,0,1,7.43.61c6.1,1.57,6.55,1.13,5.3-5.33-1.74-9-3.66-17.94-5.43-26.92-6.31-32-11.59-64.19-17.15-96.33-2.88-16.6-3-33.5-6.74-49.94C626.42,40.26,626.34,38.25,625,36.6Zm71.15,318.08a12.55,12.55,0,0,0,.81-7.76c-2-10.61-4.64-21.12-6.11-31.8-4.3-31.33-11-62.25-15.11-93.61-3.8-29-13.58-57-16.57-86.22-1.56-15.24-7-29.76-10.5-44.64-4.12-17.66-8-35.32-11.26-53.15-1.26-6.83-3-13.69-6.61-19.81-1-1.71-2.11-4.1-4.38-1.72-1.23,1.3-4.58,1.79-1.69,5.6a33.07,33.07,0,0,1,6.55,14c2.44,13,3.19,26.11,5.27,39,5.27,32.69,10.44,65.41,17.07,97.86,6.93,33.9,14,67.77,21.07,101.65,3.29,15.8,7.1,31.51,9.77,47.42,1.59,9.47,5,18.28,7.59,27.37C692.67,351,693.48,353.32,696.15,354.68Z"/>
    <symbol>

    <symbol id="line" viewBox="0 0 128.35 3.14">
        <path  d="M127.35,1.22c-2,1-4.21.43-6.3.31-2.92-.16-5.88.21-8.74-.21-4.1-.61-8.19-.17-12.26-.15a152.61,152.61,0,0,0-18.38.75c-4.31.54-8.63-.08-13-.08-1.63,0-3.26.09-4.9.09C59,1.9,54.26,1.8,49.48,1.8c-4,0-8.07.32-12.08.07-6-.38-12-.12-18-.35-2.8-.11-5.61-.4-8.41-.41a34.58,34.58,0,0,0-8.23.61A2.57,2.57,0,0,1,1,1.57"/>
    </symbol>

    <symbol id="frame" viewBox="0 0 300 300">
        <path  d="M84.86,301c3-1.43,6.18-.82,9.28-.82,36.31,0,72.62.21,108.92-.14a419.37,419.37,0,0,0,42.21-2.55C268,295,279.74,279.7,286.61,259.6c3.54-10.36,4.64-21.22,5.05-32.07,1.39-36.3,2.25-72.63,3.86-108.9,1.2-26.92,2-53.58-2.17-80.22-1.57-10.12-6.44-18.84-13.5-26.13-8-8.26-18.67-10.44-29.51-10.92C232,.55,213.83,3.41,195.46,3.09,146.5,2.23,97.54.4,48.55,1.19c-24.22.39-39.64,19.65-42.4,38a314.88,314.88,0,0,0-2.88,68.39C5.38,138.17.59,168.38,1,198.83c.26,18.32,2.05,36.54,2.19,54.87.16,20.4,12.4,34.1,29.37,43.76a13.92,13.92,0,0,0,9.21,1.84C56,296.66,69.91,301.25,84,301"/>
    </symbol>

    <symbol id="cogs" viewBox="0 0 69.72 67.68">
        <path d="M69.72,49.38V49l0-.09,0-.08,0-.09,0-.09,0-.08,0-.08,0-.07,0-.08,0-.07,0-.07-.05-.07,0-.07,0-.07,0-.06,0-.06-.06-.06,0,0L69,47.71l-.06-.05-.06,0-.06-.06-.06,0-.06,0-.06-.05-.06,0-.07,0-.06,0-.07,0-.12-.08-.13-.08L68,47l-.12-.07-.13-.07-.25-.14-.11-.06-.12-.07-.11-.06L67,46.47l-.1-.06-.05,0,0,0,0,0,0,0,0,0,0,0,0,0,0,0,0-.05-.06,0,0,0-.05-.05,0,0,0,0,0-.05,0,0-.05-.05,0-.06,0-.05,0,0,0-.06v0l0,0v-.05l0,0v-.63l0,0v0h0v0h.06l0,0H66l0,0h.5l.11,0,.23,0,.11,0h.13l.12,0h.19l.06,0h.07l.07,0,.06,0,.07,0,.06,0,.07,0,.06,0L68,44l.06,0,.07,0,.06,0,.06,0,.07,0,0-.05.06-.06,0-.07.06-.06,0-.07,0-.07,0-.08,0-.08,0-.08,0,0v0l0-.09,0-.09,0-.09v-.11l0-.11V42.5l0-.12V40.84l0-.07V40.7l0-.07,0-.07,0-.07,0-.07,0-.07,0-.07,0-.07,0-.06,0-.07,0-.07,0-.06,0-.06,0-.07,0-.06-.06,0,0-.06-.07,0-.06-.05,0,0,0,0,0,0,0,0,0,0h0l0,0,0,0h0v0l0-.07,0,0,0,0,0-.05,0,0,0,0,0-.06,0,0-.06-.06,0,0,0,0,0,0,0,0,0,0,0,0,0,0,0,0h-.68l-.13,0-.12,0-.13,0-.13,0-.13,0-.26,0-.13,0-.13,0-.13,0-.13,0h-1l0,0h0l0,0,0,0,0,0h0v0h0v0h0l0,0h0v0h0v-.2l0,0V38h0v0h0v-.08h0v0h0v0l0,0,0,0,0,0,0,0,0,0,0,0,0,0,0,0,0,0,0,0,0,0,0,0,0,0,.09-.09.1-.09.1-.09.11-.1.1-.09.06-.06,0,0,0-.06.06,0,0-.06,0-.06.05-.06,0-.07,0-.07,0-.07,0-.07,0-.08,0-.08,0-.08,0,0v0l0-.05v-.09l0,0v-.86l0-.06v-.05l0-.06,0-.05,0-.06,0-.05,0,0,0,0,0,0,0,0,0,0,0,0,0,0L65,34l0-.08-.06-.07-.06-.07-.1-.13-.1-.11,0-.06,0-.05-.06-.08-.07-.09-.07-.09,0,0,0-.05,0,0,0,0,0,0,0-.05,0,0-.05,0,0,0,0,0-.07-.05-.06,0-.07,0-.06,0-.06,0-.06,0-.07,0-.06,0-.06,0-.07,0-.06,0-.06,0-.07,0-.06,0-.06,0H62.8l-.06,0h-.56l-.06,0h-.06l-.06,0-.06,0,0,0-.06,0,0,0-.05,0,0,0-.06,0,0,0,0,0-.05,0,0,0,0,0-.1.06-.09.07-.09.07-.09.07-.09.07-.1.08-.09.08-.18.15-.2.16,0,0-.05.05,0,0,0,0-.09.09-.09.11-.1.11,0,0L59.8,34l0,0-.06,0,0,0,0,.05-.05,0h0l0,0,0,0h-.16l-.06-.07-.06-.07,0-.07-.06-.06L59,34,59,34l0-.06,0,0,0-.06,0,0,0,0,0-.05,0,0,0,0,0,0v0l0,0v-.72l0-.1v-.11l0-.24,0-.13,0-.14,0-.15V30.37l0-.08,0-.08,0-.09,0-.07,0-.08,0-.08,0-.08,0-.07,0-.07,0-.07-.05-.07,0-.06-.05-.07,0-.06,0-.06-.06-.06-.05-.06-.06-.05L58,29.05,58,29l-.06-.06-.06-.05-.07-.05-.06,0-.07-.05-.07-.05-.07,0-.06-.05-.07,0-.07,0-.07,0-.08,0-.07,0-.07,0-.07,0-.07,0-.08,0-.07,0-.07,0-.08,0-.07,0-.07,0-.08,0-.07,0-.07,0-.08,0-.07,0H56l-.07,0-.07,0-.08,0H54.52l-.05,0h0l-.06,0,0,0-.05,0h0l-.05,0,0,0,0,0,0,0,0,0,0,0,0,0,0,0,0,0,0,0,0,0,0,0,0,0,0,0,0,0,0,0,0,0,0,0,0,0,0,0,0,0-.05.08,0,.08,0,.08,0,.08,0,.08,0,.08,0,.08,0,.08,0,.08,0,.08,0,.08,0,.08,0,.08v.08L53,30l0,.15,0,.15,0,.15v.07l0,.07,0,.07v.06l0,.07,0,.06,0,.06,0,.06,0,.05,0,.06,0,.05,0,.05,0,0,0,.05h0l0,0v0h0v0l0,0v0h0v0l0,0h0v0h0l0,0h0l0,0h0l0,0h0l-.09,0-.08,0-.07,0-.07,0-.07,0-.06,0-.06,0-.06,0h-.53l0,0H51l-.05,0h-.07l-.06,0-.07,0-.07,0-.15-.05-.35-.13-.05,0h0l0,0h0l-.1-.05-.09,0-.09-.05-.1-.05-.09-.05-.05,0,0,0,0-.06,0,0,0-.05,0,0h0v-.3l0-.07,0-.14,0-.08v-.09l0-.09v-.14a7.29,7.29,0,0,0,1,.34l.41.11.35-.24a1.13,1.13,0,0,1,.27-.13l.28-.11.17-.25a7.48,7.48,0,0,0,.84-1.86c.38-1.13.48-1.5,1.77-1.44a4.75,4.75,0,0,1,1.06.15l1.53.39-.4-1.53c-.6-2.28-2.68-2.3-4.12-2.26s-2.07-.09-2.31-.78c-.59-1.74-.7-2.58.18-3.23l.43-.21c1.16-.54,3.1-1.43,2.74-3-.79-3.41-2.42-5.28-4.58-5.28h0a3.49,3.49,0,0,0-2.6,1.48c-.57.62-.86.88-1.25.84-.73-.07-.95-.29-1.54-.89l-.49-.49L43,11.54a4.74,4.74,0,0,0,.44-1,3.11,3.11,0,0,1,.22-.56,5,5,0,0,1,.5-.58,4.06,4.06,0,0,0,1.17-1.87c.35-1.72-1-3.25-3.85-4.3a1.88,1.88,0,0,0-1,0l-.26,0-.15-.11-.37,0a2.2,2.2,0,0,0-1.36.52,2.42,2.42,0,0,0-.81,1.57,1.88,1.88,0,0,1-.19.64l-.15.29A8.21,8.21,0,0,1,36,8.14s-.06.09-.23.08a4.75,4.75,0,0,1-2.39-1.56,5.09,5.09,0,0,1-.5-2.27c-.12-1.34-.26-2.87-1.34-3.75A3.35,3.35,0,0,0,29,0C26.1.35,25.74,3,25.5,4.67l-.08.56c0,.09,0,.27,0,.5a6.47,6.47,0,0,1-.07,1A5.6,5.6,0,0,1,24.19,7a9.37,9.37,0,0,0-1.3.27,3.34,3.34,0,0,0-.73.37,2.49,2.49,0,0,0-.38.25l-.65-.46c-.1-.17-.2-.36-.25-.47s-.16-.3-.28-.5C19.71,5,18.76,3.53,17.82,3a3,3,0,0,0-2.93,0,5.79,5.79,0,0,0-2.92,4,3.81,3.81,0,0,0,.82,2.51,4.73,4.73,0,0,1,.54,1,3.73,3.73,0,0,1,0,1.25l0,.3a1.84,1.84,0,0,1-.47,1.14c-.64.4-1.09.18-2.32-.79s-2.73-2.13-4.75-.93a4.89,4.89,0,0,0-1.23,1.14,6.74,6.74,0,0,0-.89,1.43c-1.13,2.52,1.57,4.38,3.19,5.49a10.69,10.69,0,0,1,1,.76,1.17,1.17,0,0,1,0,.54,1.82,1.82,0,0,0-1,.4,3,3,0,0,1-.5-.05,5.51,5.51,0,0,1-.64-.18c-1.18-.36-3-.92-4.07.07a4.17,4.17,0,0,0-1,1.56,10.28,10.28,0,0,0-.48,1.89L.13,25c-.07.37-.38,2.21.32,2.93s1.74.51,2.54.41l.31,0,.56,0c1.74-.13,2.84-.05,3,.69a2.72,2.72,0,0,1,0,1.44c-.16.42-.54.52-1.64.62s-2.89.25-3.22,2.26a10.89,10.89,0,0,0-.12,1.87v.62A10.3,10.3,0,0,0,2,38.28c.29,1.18,2.09,1.07,2.29,1.06.56,0,1.12-.1,1.69-.16A21.3,21.3,0,0,1,8.27,39c.43,0,1,.74,1.17,1.49l-.22.58A15.49,15.49,0,0,0,6,44a3.94,3.94,0,0,0,.25,4.11,4,4,0,0,0,3.64,2.1,2.54,2.54,0,0,0,1.75-1.31,2.6,2.6,0,0,1,.35-.42c1.76-1.41,2.74-2.11,4.11-1.18.35.23.43.36-.17,1.59a8.14,8.14,0,0,0-.43,1,3.92,3.92,0,0,0,2.52,4.87,4.24,4.24,0,0,0,1,.19l.28,0,.37.07a3.24,3.24,0,0,0,1.31.1c1.44-.21,1.94-1.68,2.31-2.75a4.06,4.06,0,0,1,.33-.84,1.52,1.52,0,0,1,1-.57.51.51,0,0,1,.18,0l0,.09c.54,1.7,1.35,4.27,3.19,5.18a3.08,3.08,0,0,0,1.35.32,3.65,3.65,0,0,0,1.23-.23l.52-.19.09-.54a2.46,2.46,0,0,1,1.29-1.75l.48-.26v-.54a2.09,2.09,0,0,0,0-.25H33l.08,0,.08,0,.17,0,.16,0,.15,0,.15,0,.29-.08.13,0,.12,0,.11,0h.32l0,0,0,0,0,.05,0,0,0,0,0,.06,0,0,0,.06,0,.06,0,.07,0,.06,0,.06,0,.07,0,.06,0,.06,0,.06,0,.06,0,0,0,0,0,.05,0,0,0,0v.07l0,.09v0h0l0,.08V54l0,0v.09l0,0v0l0,0v0l0,0v0h0l0,0v0l0,0,0,0,0,0,0,0,0,0,0,0-.05,0,0,0-.05,0,0,0-.06,0,0,0-.06,0-.06,0-.07,0-.06,0-.13,0-.14,0-.14.05-.15,0-.15,0-.15.05-.07,0-.08,0-.08,0-.07,0-.08,0-.08,0-.07,0-.08,0-.07,0-.08,0-.07.05-.08,0-.07.06-.07.06-.07.06,0,0,0,0,0,0,0,0,0,0,0,0,0,0,0,0,0,0,0,0,0,0,0,0,0,.05,0,0,0,0,0,.05,0,0,0,0,0,.06,0,0v.05l0,0v0l0,.06v1l0,.11,0,.1,0,.1,0,.1,0,.1,0,.1,0,.09,0,.1.05.1,0,.09,0,.09.05.09,0,.1,0,.08.06.09.06.09.06.08.06.09.07.08.06.08.07.08.07.07.07.08.08.07.07.08.08.07.08.06.08.07.08.07.09.06.08.06.08.06.09.06.09.05.09,0,.09.05.09,0,.09,0,.1,0,.09,0,.1,0,.09,0,.1,0,.1,0L35,61l.1,0,.1,0,.1,0H36l0,0h.13l0,0,0,0,0,0,0,0,0,0,.06,0,.07-.05.05,0,.06,0,0-.05,0,0,0-.05,0,0,0,0,0-.05,0,0,.06-.08.1-.17,0-.06,0,0,0,0v0l0,0h0v0l.18-.17.18-.18.09-.08.09-.08.09-.09.09-.08.09-.08.09-.07.09-.07.1-.07,0,0,0,0,0,0,.05,0,0,0,0,0,.05,0,0,0,.06,0,.05,0,0,0,0,0h.44l0,0h0l0,0,0,0,0,0,0,0,0,0,0,0,0,0,0,0,0,0,0,0,0,0,0,0,0,0,0,0,0,0,0,0,0,0,0,0,0,0,0,0,0,0,0,0v0l0,0v0l0,0v1l0,.09,0,.09,0,.09,0,.09,0,.09,0,.09,0,.09,0,.1-.09.2-.1.19-.1.2,0,.1-.05.11,0,.1-.05.11,0,.1,0,.11,0,.11,0,.11,0,.11,0,.11,0,.06v.11l0,.06v.93l0,.06v.06l0,.06,0,.07,0,.06,0,.06,0,.07,0,.06,0,.06,0,.06,0,.06,0,.06,0,.06,0,.06,0,.06.05,0,0,.06.05.06.06,0,.05.06.06,0,.06.06.07,0,.07.05.06,0,.07,0,.07.05.06,0,.07,0,.06,0,.07,0,.12.06.24.12.08,0,.07,0,.16.09.17.09.08,0,.09.05.09,0,.1,0,.1,0,.05,0,0,0,0,0,.06,0,0,0H42l.05,0h.06l.06,0h.94l.05,0h0l0,0h0l0,0,0,0,0,0,0,0,0,0,0,0,0,0,0,0,0,0,0,0,.06-.06.06-.06.06-.06.05-.06.06-.06,0-.07.05-.06,0-.07,0-.07,0-.07,0-.07,0-.07,0-.07,0-.07,0-.07,0-.07,0-.07,0-.07,0-.07,0-.07,0-.14,0-.14,0-.14,0-.14.06-.26,0-.12,0-.11,0-.11,0,0,0,0v-.05l0,0v0l0,0,0,0v0l0,0v0l0,0,0,0,0,0,0,0,0,0,0,0,0,0,0,0,0,0,0,0,0,0,0,0,0,0,0,0,0,0,0,0,0,0,0,0,0,0,0,0,0,0,0,0h0l0,0,0,0,0,0h0l0,0h.06l0,0h.41l.08,0h1l.09,0,.09,0,.09,0,.09,0,.08,0,.09,0,.09,0,.09,0,.08,0,.09,0,.09,0,.08,0,.08,0,.08,0,.08,0,.08,0,.08,0,.07,0,.08,0,.07,0,.07,0,.07.05.06,0,.06,0,.06.06.06,0,.06.05,0,0,.05.05,0,.06,0,.06.06.06.08,0,.07,0,.09,0H50l.09,0v.08l0,.09,0,.1v.09l0,.09v.31l0,.2,0,.23,0,.12,0,.12,0,.13,0,.13,0,.13,0,.13v.06l0,.07,0,.07,0,.06,0,.07,0,.06,0,.07,0,.06,0,.07,0,.06,0,.07,0,.06,0,.06,0,.07,0,.06.05.06,0,.06,0,.06.05,0,.06.05.05.06.06.05.07,0,.06,0,.07,0,.08,0,.07,0,.08,0,.08,0,.08,0,.09,0h.86l.05,0h.11l.06,0,0,0h0l.05,0,0,0,.05,0,0,0,0,0,0,0,0,0,0,0,0,0,0,0,0,0,0,0,0,0,0,0,0,0,0,0,0,0,0,0,0,0,0,0,0,0,0,0,0,0,0,0,0,0,.06-.08,0-.07.05-.08,0-.08,0-.08,0-.08,0-.09,0-.08,0-.08,0-.09,0-.08,0-.08,0-.09v-.16l0-.09V63.31l0-.07h0v-.15l0,0,0-.05,0-.06,0-.05,0,0,0-.06,0-.06,0-.05.05-.06,0-.06.06-.05,0-.06,0-.05.06-.06,0-.05.06,0,.05-.05.06,0,.06,0L55.7,62l0,0,.06,0,0,0,.06,0,0,0,.05,0,0,0,0,0,0,0,0,0,0,0,0,0,0,0h.14l0,0h.59l0,0h0l0,0h0l0,0,0,0,0,0,0,0,0,0,.06,0,.06,0,.06.05.06.06.06.06.06.06.06.07.07.07.06.07.06.07.06.08.13.16.13.16.14.17.13.17.14.17.07.09.07.08.08.09.07.08.08.08.08.08.08.08.08.08.08.08.09.07.08.07,0,0,0,0,0,0,0,0,0,0,.05,0,0,0,.05,0,0,0,.06,0,0,0,.05,0,.06,0,.05,0,.06,0,.05,0,.06,0h.06l.06,0h1l0,0h.05l0,0,.05,0,0,0,0,0,.05,0,0,0,0,0,.05,0,0,0,0,0,0,0,0,0,0,0,0,0,0,0,0,0,0,0,0,0,0,0,.07-.07.07-.08.07-.07.06-.08.07-.08.06-.09,0-.08.06-.08,0-.09,0-.09,0-.09,0-.1,0-.09,0-.09,0-.1,0-.1,0-.09,0-.1,0-.1,0-.1,0-.1,0-.1,0-.1,0-.1v-1l0-.09v-.1l0-.09,0-.1,0-.09,0-.09,0-.1,0-.08,0-.09,0,0,0,0,0,0,0,0,0,0,0,0,0,0,0,0,0,0,0,0,0,0,0,0,0,0,0,0,0,0,0,0-.06,0-.07-.05-.07,0-.07,0-.07,0-.06,0-.07,0-.12-.06-.12-.06,0,0-.05,0,0,0,0,0,0,0,0,0,0,0,0,0h-.09v0h0V58l0-.06v0l0-.05v0l0,0,0-.05,0,0,0,0v0l0,0,0,0h.08l0,0h.6l.06,0h.07l.07,0,.07,0,.08,0,.07,0,.08,0,.08,0,.08,0,.17.07.17.08.17.08.18.08.18.08.1,0,.09,0,.09,0,.1,0,.09,0,.1,0,.1,0,.09,0,.1,0,.1,0,.1,0H66l0,0,.06,0,0,0,0,0,.06,0,0,0,.05,0,0,0,.06,0,0,0,0,0,.05,0,0,0,0,0,0,0,0,0,0-.05,0,0,0-.05,0,0,0-.06,0-.05,0-.07,0-.07,0-.06,0-.07,0-.07,0-.07,0-.07,0-.06,0-.07,0-.07,0-.07,0-.07v-.62l0-.06V56l0-.07v-.06l0-.06,0-.06,0-.06,0-.06,0,0,0-.06,0,0,0-.06,0,0,0-.05,0,0,0-.05,0,0,0,0,0-.05,0,0,0,0-.07-.09-.09-.09-.08-.08-.09-.09-.08-.08-.09-.08-.09-.08-.09-.08-.08-.08-.18-.15L65.71,54l-.08-.08-.09-.07-.07-.07-.08-.07-.07-.07-.07-.07-.07-.07-.06-.07-.06-.06,0,0,0,0,0,0,0,0,0,0,0,0v0l0,0,0,0,0,0v0l0,0V52.4l0,0,0,0v0l0,0,0,0,0,0h0l.06-.06,0-.07,0-.08,0-.08,0-.09h0v-.14l.13-.19,0,0,0,0,0,0,0,0,0,0,0,0,0,0h0l0,0h1l.12,0,.11,0,.25,0,.12,0,.13,0,.14,0,.13,0h1l.08,0,.07,0,.08,0,.07,0,.07,0,.08,0,.07,0,.06,0,0,0,0,0,0,0,0,0,0,0,0,0,0,0,0,0,0,0,0,0,0,0,0,0,0,0,0,0,0,0,0,0,0,0,0,0,0,0,0,0v0l0,0,0-.09,0-.1,0-.09,0-.1v-.52ZM26.57,32.16a3.43,3.43,0,0,1-1.51-2A2.81,2.81,0,0,1,25.17,28,3.22,3.22,0,0,1,28,26.21h0a2.68,2.68,0,0,1,1,.29l.34.32h.27a6,6,0,0,1,.84.84,3.19,3.19,0,0,1,.64,1.18,3,3,0,0,1-.51,1.85,3.24,3.24,0,0,1-1.91,1.6A2.76,2.76,0,0,1,26.57,32.16Zm8.06,12.07v0h0v.17l0,0v.05l0,.06,0,.06,0,.06,0,.06,0,.06-.05.12,0,.12,0,.1,0,.1,0,0,0,0,0,.06,0,.06v.88h0l-.06.06L34,46.5l0,.07,0,0v.06h-.62l-.08,0-.09,0-.09,0-.1,0-.19,0-.09,0-.1,0-.1,0-.11,0-.1,0H31.7l-.06,0h-.06l-.06,0-.05,0-.06,0-.05,0-.06,0-.05,0-.05,0-.05,0,0,0-.05,0,0,0-.05,0-.05,0,0,0,0,0,0,0-.05,0,0,0,0,0,0,0,0,0,0,0,0,0,0,0,0,0,0,0,0,0,0,0,0,0,0,0,0,0,0,0,0,0,0,.05,0,.09,0,.09,0,.1,0,.09,0,.1,0,.1,0,.1,0,.1,0,.1v1.7l0,.1v.18l0,.09,0,.1v.08l0,.09,0,.09v0a2.42,2.42,0,0,1-.53-.53A4.54,4.54,0,0,1,29.86,46a2.12,2.12,0,0,1,2.41-.74l1.08.27.08-1.11a1.15,1.15,0,0,1,.14-.55l0-.06.15,0,.15,0,.07,0L34,44l.07,0,.07,0,.07,0,.06,0,.06,0,.06,0,0,0,.05,0,0,0,0,0Zm1.87-5.78v.3l0,0v.1l0,0v0l0,0v0l0,0v0l0,0v0l0,0v0h0v0H35.9l0,0-.05,0,0,0-.06,0,0,0-.06,0-.06,0-.07,0-.06,0-.06,0-.07,0-.14-.1-.13-.1-.14-.11-.15-.1-.14-.1-.08-.06-.07-.05-.08,0-.08,0-.07-.05-.08,0-.08,0-.08,0-.08,0-.08,0-.09,0-.08,0h0l0,0h-.69l0,0h-.09l0,0,0,0,0,0h0l0,0,0,0-.05,0-.08.05-.07,0-.08,0-.07.05-.08.06-.06.06-.07.06-.07.07-.06.06-.06.06-.06.07-.06.07-.06.06,0,.07-.05.06-.05.07-.05.07-.05.06,0,.07,0,.06,0,.06,0,.06,0,.07,0,0,0,.06-.07.14-.08.15,0,.08,0,.08,0,.09,0,.09,0,.08,0,0,0,.05,0,0v.05l0,0v.06l0,0v.87h0c-.35-.26-.59-.51-.62-.77a4.71,4.71,0,0,1,1.51-3.95,1.68,1.68,0,0,1,1.79-.2l3.2,1.37v0l0,0,0,0,0,.05v.35ZM47.59,27.63l-.08,0h-.09l-.08,0h-1l-.09,0-.08,0-.08,0-.08,0-.08,0-.09,0-.08,0-.07,0-.08,0-.08,0-.08,0-.07,0-.08,0-.08,0-.07,0-.07,0-.07,0-.07,0-.07,0-.07,0-.07,0-.07,0-.06,0-.07,0-.06,0-.06,0-.06,0-.08.06-.08.05-.08.06-.07.06-.07.06-.07.05-.06.06-.07.06,0,0-.06.06,0,.06-.06.05,0,.06-.05.06,0,.06,0,.06,0,.06,0,.06,0,.06,0,.06,0,.07,0,.06,0,.06,0,.06,0,.06,0,.07v2l0,.07,0,.08v.08l0,.08,0,.09v.13l0,0v.08l0,0v0l0,0v0l0,0,0,0,0,.07,0,.06,0,.07,0,.06,0,.06,0,.06,0,0,0,.06-.05.06,0,0-.06.05,0,.06-.06,0-.06.05-.06,0-.06.05-.07,0-.06,0-.07,0-.07.05-.08,0-.07,0-.08,0-.08,0-.08,0-.08,0,0,0h-.06l0,0h0l0,0H40.5l0,0h0l0,0,0,0,0,0,0,0,0,0,0,0,0,0,0,0,0,0-.08-.1L40,33.68l-.08-.12-.09-.11-.18-.25-.1-.13-.09-.13-.1-.13-.06-.06,0-.07,0-.06-.06-.06,0-.06L39,32.43,39,32.37l-.06,0-.06-.06-.06-.06-.06-.05-.07,0L38.59,32l-.07,0L38.45,32l-.07-.05-.08,0-.08,0-.07,0,0,0H38l-.05,0h-.79l0,0h-.05l0,0h0l-.05,0,0,0,0,0-.05,0,0,0,0,0,0,0-.05,0,0,0,0,0,0,0-.05,0,0,0-.11.09-.11.09-.1.1-.11.1-.1.09-.11.1-.1.1-.1.1-.1.1-.1.1-.1.11-.1.1-.1.11-.09.1-.09.11-.1.11-.06.08,0,0,0,0,0,0,0,.05,0,.06,0,.06,0,.06,0,.07,0,.07,0,.08v.85l-.13-.16a2.28,2.28,0,0,1-.41-2.19,4.24,4.24,0,0,1,2.55-2.65c.9-.31,1.85.6,2.66,1.59L39,32l.53.57.73.48.65-.43a3.24,3.24,0,0,0,1.38-1.64l.06-.2,0-.2a4,4,0,0,1,.14-2.24,3.36,3.36,0,0,1,3.66-1.74,3.17,3.17,0,0,1,2,1.24l-.08,0-.08,0-.08,0-.09,0-.08,0ZM52.7,47.22v.43l0,.08,0,.07,0,.08,0,.08,0,.07,0,.08,0,.07,0,.08,0,.07,0,.07,0,.07,0,.07-.05.07,0,.07,0,.07,0,.06-.06.07-.05.06-.06.06-.05.06-.06.06-.07.06-.06,0-.06.05-.07,0-.06.05-.07,0-.07,0-.07,0-.07.05-.07,0-.07,0-.08,0-.07,0-.08,0-.07,0-.08,0H49.44l0,0h-.08l0,0h0l0,0,0,0h0l0,0,0,0,0,0,0,0h0l0,0,0,0,0,0,0,0,0,0,0,0,0,0,0,0,0,0,0,0,0,0-.06-.06-.05-.06-.06-.06-.05-.06,0-.06,0-.07,0-.07,0-.07,0-.07-.05-.07,0-.07,0-.08,0-.08,0-.08,0-.08,0-.08,0-.1,0-.11,0-.11,0-.12v-.05l0,0v-.06l0,0v-.06l0,0V46.6h0v0l0,0,0,0,0-.05,0,0,0,0,0-.05,0,0,0,0,0,0,0,0,0,0,0,0,0,0,0,0,.11-.11.12-.1.11-.1.12-.1.06-.05,0,0,.06,0,.06-.05.06,0,.05,0,.06,0,.06,0,.05,0,.06,0,.06,0,0,0,.06,0,.06,0,.06,0,.05,0,.06,0,.06,0,.06,0h.71l.07,0h.06l.07,0,.06,0,.13,0,.1,0,.42.15.08,0,.08,0h.08l.09,0,.07,0,.06,0,0,0,0,0,0,0,0,.05,0,0,0,0,0,0,0,0,0,.05,0,0,0,0,0,.05,0,0,0,0,0,.05,0,0,0,.05,0,0,0,0,0,.05,0,0,0,0,0,.05,0,0,0,.05,0,0,0,0v0l0,0v.7Z"/>
    </symbol>

    <symbol id="photo1" viewBox="0 0 52.7 66.44">
        <path d="M18.44,65.41c7.38,0,14.77-.06,22.15,0,2.67,0,5.26-.51,7.91-.64,1.7-.09,2.66-1.68,2.9-3.7.74-6.24-.15-12.47-.06-18.7.13-9-.05-17.93.08-26.89,0-3.07,0-6.13-.06-9.2,0-1.7-.23-3.44-1.87-4.43-1.3-.79-2.84-.66-4.3-.74-3.88-.23-7.76-.13-11.65,0C30,1.2,26.35,1,22.75,1c-5.56.08-11.12.38-16.68.27a14.19,14.19,0,0,0-2.44.34C2,1.88.85,4.18,1,6.17a141.75,141.75,0,0,1,.12,16.1,39.83,39.83,0,0,0,.35,7.47,3.71,3.71,0,0,1,.11.58c0,5.56.63,11.13.25,16.68-.23,3.36,0,6.74-.33,10.06-.21,1.87.15,3.65.11,5.47a2.55,2.55,0,0,0,2.85,2.73l13.81.15"/><path d="M22.32,4.73c-2.44.26-4.89.16-7.34.42-2.72.28-5.45.39-8.19.46-1.59,0-2.15.71-2,2.28.41,4.31.19,8.63.29,12.94a39.11,39.11,0,0,1,.27,4.46c-.62,6.32-.13,12.65-.29,19a5.67,5.67,0,0,0,0,1c.22,1.65.48,1.84,2.15,1.87,5.42.11,10.84.52,16.26.78a151.75,151.75,0,0,0,16-.06,35.1,35.1,0,0,0,5.61-.28c1.67-.36,2.47-1.16,2.59-2.74q.82-10.92.72-21.86c0-3.85-.73-7.65-.77-11.5a24,24,0,0,0-.21-3,3,3,0,0,0-3.05-2.74Q35.06,5,25.77,4.85c-1.1,0-2.2-.11-3.31-.12"/>
    </symbol>

    <symbol id="bookmark" viewBox="0 0 60 70">
        <path d="M1.31,5.7c.17,3.4-.49,6.79-.26,10.18.6,9.11.37,18.23.6,27.34.16,6.23.58,12.45.47,18.69a14.48,14.48,0,0,0,.35,2.22c.14,1,1.52,1.17,2.32.42a40.79,40.79,0,0,0,5.46-6.95c3.05-4.48,5.8-9.16,9.2-13.4a38.27,38.27,0,0,1,3.62-4.33c1.1-1,1.82-1.13,3.07-.27a17.64,17.64,0,0,1,2.51,2.22A156.7,156.7,0,0,1,43.73,59.68a22.18,22.18,0,0,0,4.46,4.46c1.06.82,1.79.51,1.94-.84a62.49,62.49,0,0,0,.37-6.69c.06-6.79.26-13.58.3-20.36A157.66,157.66,0,0,0,50,17.69a39.65,39.65,0,0,1,.08-4.87c0-2.75-.13-5.49-.26-8.23-.11-2.21-.76-2.7-3.05-3.1-2.93-.5-5.87-.17-8.8-.36-7.16-.45-14.32.44-21.49.24-2.23-.06-4.46-.46-6.7,0-1.84.38-3.75.42-5.58,1S1.45,3.83,1.31,5.56"/>
    </symbol>

    <symbol id="cards" viewBox="0 0 68 64.1">
        <path d="M30.29,3.21a2.26,2.26,0,0,0-1.14-.27,58.35,58.35,0,0,0-8.47.25c-2.79.42-5.29,1.36-6.35,4.37A6.85,6.85,0,0,0,14,10c.05,4.72-.25,9.44-.37,14.15s.34,9.44.22,14.16c-.09,3.49,0,7-.24,10.49a36.91,36.91,0,0,0,.21,3.92c.14,2.39,1.7,3.42,3.78,3.92a41.35,41.35,0,0,0,10.87,1c1.13,0,2.27.09,3.41.11a6.12,6.12,0,0,0,2.54-.35,5,5,0,0,1,3.26.19c2.6.66,5.28.76,7.85,1.46,1.57.43,3.19.67,4.79,1,3,.53,4.77-.9,5.85-3.67,1.4-3.56,1.91-7.34,2.92-11,1.26-4.61,2.67-9.18,3.62-13.88,1-5.09,2.76-10,3.89-15,1-4.28.72-6.57-4.17-8.71A41.11,41.11,0,0,0,52.9,4.48C47.55,3.57,42.37,1.85,37,1.09a7.49,7.49,0,0,0-6.47,2.1c-.18.17,0,.27-.11.4a36.52,36.52,0,0,0-3.26,9.07c-.86,4-2.08,7.86-3.3,11.74-.85,2.7-1.2,5.49-1.86,8.23-.78,3.2-1.78,6.35-2.48,9.58A47.71,47.71,0,0,0,18.28,48a3.74,3.74,0,0,0,2,3.59,31,31,0,0,0,7.85,3.27c1.62.49,3.27.91,4.92,1.32.51.13,1.3.14,1.39,1"/><path class="bd3ab900-a49b-43ff-a8e7-7c0a89340a26" d="M13.83,8.57c-.58-.36-1.13,0-1.64.15a33.1,33.1,0,0,0-7.36,2.19C1.14,12.74.94,15.32,1,18.5c.09,3.59,1.56,6.88,2.19,10.36.67,3.69,1.45,7.38,2.4,11,.67,2.55,1.3,5.11,1.8,7.71s.9,5,1.43,7.47a31,31,0,0,0,1.53,5.55A3.75,3.75,0,0,0,13.73,63c4.76.59,9.23-.83,13.79-1.64,3.33-.6,6.57-1.63,9.86-2.38.5-.12,1.18-.18,1.4-.85"/>
    </symbol>

    <symbol id="dice" viewBox="0 0 100 138.05">
        <path d="M65.76,138.05a12.87,12.87,0,0,1-2.47-.27,26.44,26.44,0,0,1-7-2.49,48.35,48.35,0,0,1-6.74-3.77,23.18,23.18,0,0,0-5-2.38,71.28,71.28,0,0,1-8.46-4,31.34,31.34,0,0,0-4.43-2,16.37,16.37,0,0,1-3.17-1.56c-1-.64-1.06-1.12-.26-2a24.72,24.72,0,0,1,3.44-3.11c1.17-.9,2.37-1.76,3.58-2.59,1.83-1.26,3.4-2.84,5.2-4.11,3.89-2.72,7.49-5.89,11.78-8,3.41-1.67,6.87-3.24,10.72-3.65a3.26,3.26,0,0,1,1.72.27,27.17,27.17,0,0,0,6.32,2.3,3.38,3.38,0,0,1,1.21.5A63.85,63.85,0,0,0,85,107.39,36.69,36.69,0,0,1,92.51,111a6.14,6.14,0,0,0,1.08.56,9.42,9.42,0,0,1,4.24,4,1,1,0,0,1,0,1.14,7.42,7.42,0,0,1-.89,1.12,36.89,36.89,0,0,1-6.53,5.42,26.15,26.15,0,0,0-3,2.22,41.32,41.32,0,0,1-5.1,3.48c-3.42,2.11-6.71,4.42-10.22,6.38-1.09.61-2.16,1.26-3.26,1.86A5.69,5.69,0,0,1,65.76,138.05Zm-3.3-33.64c-.36,0-.73,0-1.09.09a3.48,3.48,0,0,0-3.08,4.29c.08.51.15,1,.27,1.52A4.08,4.08,0,0,0,64.63,113a4.57,4.57,0,0,0,2.15-5.12A4.46,4.46,0,0,0,62.46,104.41Zm-.22,24.73a3.23,3.23,0,0,0,4.83,3.13c.41-.24.87-.41,1.27-.66a3.19,3.19,0,0,0,1.13-4.17,3.88,3.88,0,0,0-4.12-2.11A3.93,3.93,0,0,0,62.24,129.14Z"/><path d="M22.34,86.59a21.16,21.16,0,0,1,.27-2.75c.07-.84.15-1.68.2-2.52a6.47,6.47,0,0,1,.72-2.64A13.63,13.63,0,0,1,28.73,73a55.56,55.56,0,0,0,6.36-4.57c2-1.66,4.17-3.15,6.22-4.78,3.53-2.79,7.35-5.16,11-7.82a12.11,12.11,0,0,1,3.64-1.56c.72-.24.88-.05.66.67a18.5,18.5,0,0,0-1,7.07c.18,2.17.38,4.33.64,6.48.2,1.61.34,3.22.43,4.84a104.89,104.89,0,0,0,1.56,14.37c.29,1.44.72,2.86,1.11,4.28a10.29,10.29,0,0,0,1.92,3.45c.52.7.44.86-.43,1.07a45.92,45.92,0,0,0-12.3,5,84.19,84.19,0,0,0-9.76,6.85c-2.45,1.89-5,3.7-7.44,5.54a39.42,39.42,0,0,0-4.54,4c-.17.18-.29.49-.59.43s-.33-.45-.4-.72c-.11-.47-.16-1-.26-1.42-.84-4-1.28-8.06-1.79-12.12-.27-2.11-.29-4.26-.5-6.38-.32-3.3-.26-6.62-.84-9.9A9.6,9.6,0,0,1,22.34,86.59Zm20.12-1.92A3.92,3.92,0,0,0,40,81.05a4.16,4.16,0,0,0-4.54,1.4,3.48,3.48,0,0,0,1.75,5.3A4.6,4.6,0,0,0,41.6,86.6,2.64,2.64,0,0,0,42.46,84.67Z"/><path d="M37.42,0a7.8,7.8,0,0,1,4,.89,12.66,12.66,0,0,0,2.39.8,13.52,13.52,0,0,1,3.46,1.68c1.11.73,2.27,1.39,3.42,2,3.24,1.83,6.54,3.56,9.72,5.48,3.87,2.35,7.67,4.82,11.31,7.53a1.64,1.64,0,0,1,.26.2c.2.19.57.3.47.66s-.4.28-.64.36a44.33,44.33,0,0,0-8.19,3.85c-1,.57-2,1.13-3,1.62-3.06,1.47-6.08,3-9,4.72A50.92,50.92,0,0,0,40.79,38a20.71,20.71,0,0,0-2.86,3.2c-.53.82-.67.79-1.15-.11A13.76,13.76,0,0,0,33.44,37a68.19,68.19,0,0,0-11.28-7.53c-3.55-2-7.08-3.94-10.49-6.13a20.72,20.72,0,0,0-9.5-3.63c-.21,0-.47,0-.57-.25s.1-.48.27-.66a17.57,17.57,0,0,1,3.81-3.16c5.73-3.26,11.48-6.48,17.39-9.4,3-1.49,5.93-3.14,8.78-4.89A12,12,0,0,1,37.42,0Zm-.59,12.28A4.14,4.14,0,0,0,32.9,17a3.32,3.32,0,0,0,5.58,2,6.81,6.81,0,0,0,.93-.93,3.52,3.52,0,0,0-2.58-5.71Z"/><path d="M100,107a9.46,9.46,0,0,1-1.67,4c-.47.56-.89.62-1.42.11a7.16,7.16,0,0,0-2.86-1.62,2.34,2.34,0,0,1-.6-.28,48.59,48.59,0,0,0-10-4.75,60.61,60.61,0,0,1-9.58-4.76,10.11,10.11,0,0,0-3.29-1.24,14.72,14.72,0,0,1-6-2.44A9.07,9.07,0,0,1,61.11,91a57,57,0,0,1-1.86-11.54c-.2-3.09-.37-6.18-.66-9.25-.25-2.53-.63-5-.93-7.57A15.14,15.14,0,0,1,58,57.22c.16-.72.36-1.42.54-2.14.12-.48.37-.71.88-.5a13.7,13.7,0,0,1,1.54.61c3.88,2.12,7.87,4,11.92,5.8,3.33,1.46,6.67,2.94,10.08,4.23a69,69,0,0,1,7.79,3.39,20.7,20.7,0,0,1,5,3.27,3.79,3.79,0,0,1,1.21,2.53c.23,3.2.43,6.39.67,9.59.14,1.79.31,3.59.48,5.39.25,2.71.62,5.42.74,8.13.13,3,.67,5.85,1.07,8.77C99.92,106.51,100,106.73,100,107ZM88.87,97.75c2.18,0,3.61-1.31,3.61-3.3a3.89,3.89,0,0,0-3.68-3.69,3.56,3.56,0,0,0-3.38,3.78A3.17,3.17,0,0,0,88.87,97.75ZM72.79,68a3.53,3.53,0,0,0-3.28-3.73A3.83,3.83,0,0,0,65.94,68a3.29,3.29,0,0,0,3.64,3.28A3.13,3.13,0,0,0,72.79,68Zm-.77,22a3.26,3.26,0,0,0,3.4-3.28,3.39,3.39,0,1,0-6.78,0A3.27,3.27,0,0,0,72,90.06ZM87.53,73.69a3.11,3.11,0,0,0-3.17,3.13A3.75,3.75,0,0,0,88,80.26a3.09,3.09,0,0,0,3.09-3.09A3.66,3.66,0,0,0,87.53,73.69Z"/><path d="M36.15,46.86A21.55,21.55,0,0,1,35.54,51a10.45,10.45,0,0,0-.23,3.94,50.72,50.72,0,0,1,.19,9.7A1.87,1.87,0,0,1,34.83,66a63.93,63.93,0,0,1-7.43,5.36A10.86,10.86,0,0,0,23.8,75c-.13.22-.26.44-.4.66a.67.67,0,0,1-1,.24c-.5-.31-1-.58-1.54-.88C17.89,73.25,15,71.48,12,69.77,9.25,68.19,6.5,66.6,3.68,65.16a5.73,5.73,0,0,1-3.31-4.6A46.81,46.81,0,0,1,0,53.08c0-3.65.38-7.28.53-10.92.24-5.74.15-11.48.1-17.22a14.86,14.86,0,0,1,0-2.75c.1-.51.32-.69.82-.6a18.81,18.81,0,0,1,7.08,2.35c1.83,1.17,3.69,2.29,5.51,3.48,2.29,1.48,4.72,2.73,7.11,4a92.49,92.49,0,0,1,8.19,5,34.91,34.91,0,0,1,3.88,3.1,8.52,8.52,0,0,1,2.65,5A9.28,9.28,0,0,1,36.15,46.86ZM24,69.43a3.85,3.85,0,0,0,3.57-3.91,3.45,3.45,0,0,0-3.72-3.25,3.34,3.34,0,0,0-3.37,3.36A3.7,3.7,0,0,0,24,69.43Zm-15.4-36c-2.23,0-3.72,1.33-3.72,3.33a3.61,3.61,0,0,0,3.62,3.52c1.94,0,3.24-1.48,3.25-3.66A3,3,0,0,0,8.63,33.44ZM27.71,47.32a3.25,3.25,0,0,0-3.33-3.45,3.4,3.4,0,1,0-.12,6.79A3.27,3.27,0,0,0,27.71,47.32ZM12,57.4c0-2.31-1.75-3.91-3.81-3.46a3.09,3.09,0,0,0-2.54,2.93,3.65,3.65,0,0,0,2.23,3.71A3.09,3.09,0,0,0,12,57.4Z"/><path d="M37.86,60a43.72,43.72,0,0,0-.43-5.94,5.61,5.61,0,0,1,0-2.2,19.9,19.9,0,0,0,.56-5.7A4.64,4.64,0,0,1,39,43.29a36.54,36.54,0,0,1,9.76-9.16C51,32.55,53.59,31.39,56,30c3.85-2.25,8-3.94,11.82-6.23a23.33,23.33,0,0,1,4.33-1.93,6.7,6.7,0,0,1,1.06-.3c.72-.11,1.06.13,1.18.82a12.6,12.6,0,0,1,.15,3.52,41.61,41.61,0,0,0,0,7.06,53.68,53.68,0,0,1,0,7.06,29,29,0,0,0,.09,6.72A46.27,46.27,0,0,1,75,54.85a16.61,16.61,0,0,1-.2,3.52c-.07.28-.12.58-.2.86-.2.65-.31.71-.95.45a43,43,0,0,1-6.19-2.9c-.67-.4-1.45-.54-2.14-.88-1.72-.85-3.42-1.72-5.12-2.6a7.77,7.77,0,0,0-1.51-.66c-.27-.08-.52-.11-.7.15s-.53.29-.84.07a3.55,3.55,0,0,0-4,0,64,64,0,0,0-5.32,3.56c-3.07,2-6,4.23-8.93,6.5a4.48,4.48,0,0,1-.44.32c-.36.22-.58.09-.58-.32C37.85,61.92,37.86,61,37.86,60ZM44,47.55A4.58,4.58,0,0,0,46.44,52a4.48,4.48,0,0,0,4.91-.28,4.12,4.12,0,0,0,.1-6.63c-.5-.37-1-.75-1.52-1.09a3.34,3.34,0,0,0-4,.13A4.63,4.63,0,0,0,44,47.55Z"/>
    </symbol>

    <symbol id="frame-3" viewBox="0 0 226.41 302">
        <path d="M26.29,1.13C19.25,2.64,12.47,4.82,8,10.91,2.84,17.85,1.75,26.12,1.7,34.4c-.1,15.29.51,30.62.23,45.88C1.6,99,.63,117.77,1.15,136.5,2,169,.83,201.53,1.83,234c.48,15.66,3.69,30.94,12.24,44.85,5.82,9.48,15.34,11.93,24.26,16,9.54,4.32,19.87,3.38,29.85,4.46,24.22,2.61,48.57,1.57,72.83,1,17.21-.41,34.46,1.16,51.64-.86,10.3-1.2,18.42-5.66,23.51-14.94,2.55-4.65,2.64-9.89,2.78-14.91.45-16.06-.06-32.15.79-48.18,1.3-24.48.4-49,1.18-73.43.53-16.63,1.2-33.31,2.38-49.89,1.61-22.57,2-45.12,2.12-67.71.05-9.37-6.72-21.14-17.82-24.75C191.73.48,175.71.11,159.36,2.18c-5.86.74-11.88.79-17.78,1-18.9.65-37.88.9-56.77.06C65.5,2.37,46.22.87,26.86,1.13"/>
    </symbol>

    <symbol id="blob" viewBox="0 0 242.9 275.02">
        <path d="M50.58,257.69c39.92,25.92,111,25.65,127.3-27.56C199,162,278.73,68.91,222.92,12,94.22-49.55-89,151.59,50.58,257.69Z"/>
    </symbol>

    <symbol id="search" viewBox="0 0 70 70">
        <path d="M53.08,13.82C50.87,10,46.33,6.36,40.27,8.05c-3,.84-6,1.5-8.59,3.35-3.49,2.54-4.71,6.32-5.06,10.37-.29,3.45-.28,6.91,1.91,10,.45.61.08,1.37-.32,2.22-2.77,6-6.23,11.54-9.57,17.19a30.79,30.79,0,0,0-3.83,8.25,17.59,17.59,0,0,0,3.43,3c3-3.7,5.34-7.76,8.18-11.41A125.07,125.07,0,0,0,35.2,37.67a3.37,3.37,0,0,0,.44-1.33L29,33.25c2.36.06,4.23,1.28,6.21,2.38s4.39.82,6.6,1.14c5.74.84,8.92-2.88,11.16-7.11C55.67,24.59,56.14,19.11,53.08,13.82Zm-2,11.48C49,31.77,43,34.25,36.76,33a7,7,0,0,1-3.6-1.86c-3.54-3.59-3.38-12.49.22-15.57a28.49,28.49,0,0,1,6.45-4.36h.23c1.25,0,2.5,0,3.75,0a5.75,5.75,0,0,1,3.51,1.13C51,15,52.6,20.79,51.11,25.3Z"/>
    </symbol>

    <symbol id="close2"  viewBox="0 0 50.93 54.33">
        <path d="M24,20.76a4.68,4.68,0,0,0,.57-.26L43.29,4.33c.7-.6,1.36-1.27,2.1-1.82,1.57-1.18,3.06-1.16,4.06,0s.94,2.42-.33,3.86c-2.29,2.59-4.58,5.18-7,7.64-3.9,4-7.9,7.82-11.86,11.73-.23.23-.43.5-.81.94,1,1.11,2,2.2,3,3.3C38,36,43.55,42,49,48a8.32,8.32,0,0,1,1.74,3,2.35,2.35,0,0,1-3.05,3.15,7,7,0,0,1-3-1.79c-2.8-2.91-5.48-5.94-8.19-8.94-3.72-4.12-7.42-8.26-11.35-12.64-1.34,1.35-2.57,2.47-3.66,3.7-4.13,4.67-8.15,9.44-12.35,14a24.33,24.33,0,0,1-4.55,3.54,2.67,2.67,0,0,1-3.5-.21C.14,51,0,49.8.77,48.19a13,13,0,0,1,1.57-2.58Q9,37.51,15.77,29.49c1.24-1.47,2.65-2.8,4.08-4.3-2.54-2.76-5.05-5.46-7.54-8.19Q6.88,11,1.49,5A5.61,5.61,0,0,1,.1,2.91,2.83,2.83,0,0,1,.41.64,2.56,2.56,0,0,1,2.64.07,7.43,7.43,0,0,1,5.29,1.9c5.68,5.63,11.32,11.31,17,17C22.85,19.48,23.39,20.12,24,20.76Z"/>
    </symbol>

    <symbol id="exclamation" viewBox="0 0 14.88 58.76">
        <path d="M1,2.4A19.24,19.24,0,0,1,1.59,8,84,84,0,0,0,3.93,26.82a35.5,35.5,0,0,1,.82,7c0,1.57.43,3,.5,4.6S7.55,41.28,9.4,41c2.49-.36,2.64-.5,2.6-3.2-.13-7.09.65-14.14,1-21.21.18-4,0-8,.44-12a4.28,4.28,0,0,0,0-.8c-.07-.81,1-1.61.18-2.38s-1.87-.24-2.77-.18a66.82,66.82,0,0,1-7.61.34,3.81,3.81,0,0,0-2,.62"/><path d="M7.8,49.41a4.9,4.9,0,0,0-2.2,2c-1,1.63-1.12,3.31-.19,4.4A5.19,5.19,0,0,0,9.8,57.74c1.63-.14,3.38-2.7,3.4-4.32,0-2-2.54-4-5.2-4"/>
    </symbol>

    <symbol id="photo" viewBox="0 0 52.7 66.44">
        <path d="M51.34,42.4c.13-9-.05-17.93.08-26.89,0-3.07,0-6.13-.06-9.2,0-1.7-.23-3.44-1.87-4.43-1.3-.79-2.84-.66-4.3-.74-3.88-.23-7.76-.13-11.65,0C30,1.2,26.35,1,22.75,1c-5.56.08-11.12.38-16.68.27a14.19,14.19,0,0,0-2.44.34C2,1.88.85,4.18,1,6.17a141.75,141.75,0,0,1,.12,16.1,39.83,39.83,0,0,0,.35,7.47,3.71,3.71,0,0,1,.11.58c0,5.56.63,11.13.25,16.68-.23,3.36,0,6.74-.33,10.06-.21,1.87.15,3.65.11,5.47a2.55,2.55,0,0,0,2.85,2.73l13.81.15h.15c7.38,0,14.77-.06,22.15,0,2.67,0,5.26-.51,7.91-.64,1.7-.09,2.66-1.68,2.9-3.7C52.14,54.86,51.25,48.63,51.34,42.4Zm-6.13.32a2.5,2.5,0,0,1-2.29,2.5,33.57,33.57,0,0,1-5,.31,135.58,135.58,0,0,1-14.25.19c-4.84-.18-9.68-.51-14.52-.55-1.49,0-1.72-.18-1.94-1.67a5.52,5.52,0,0,1,0-.91c.07-5.7-.42-11.4.07-17.1a31.66,31.66,0,0,0-.28-4c-.12-3.89,0-7.78-.38-11.66-.15-1.41.35-2,1.77-2.07,2.44-.09,4.88-.22,7.31-.49,2.18-.25,4.37-.19,6.55-.45h.12c1,0,2,.07,3,.08q8.3,0,16.57.61A2.7,2.7,0,0,1,44.64,10a21,21,0,0,1,.21,2.72c.08,3.47.73,6.89.8,10.36Q45.85,32.89,45.21,42.72Z"/>
    </symbol>

    <symbol id="gallery" viewBox="0 0 55.28 56.31">
        <path d="M13,.67c2.57,0,5.16-.11,7.73,0,2.91.16,4.25,1.15,4.6,4A51.35,51.35,0,0,1,24.87,22a4.36,4.36,0,0,1-4.12,3.55c-5.14.38-10.29.74-15.44.9C2.64,26.54,1,24.8.89,21.92.71,16.45.61,11,.68,5.5.74,1.52,2.57-.07,6.6,0,8.75,0,10.89.21,13,.33Z"/><path d="M43.37,24.77c-2.57.12-5.13.29-7.7.34-3.05.06-4.83-1.3-5-4.28a139.94,139.94,0,0,1-.05-14.77C30.93,1.73,32.27.53,36.48.29,40.86,0,45.26,0,49.64.12c3.27.12,3.61.6,4.08,3.77.26,1.79.32,3.62.4,5.44.16,3.54.42,7.07.38,10.6,0,3.38-.5,3.92-3.77,4.48-2.41.41-4.89.42-7.35.61Z"/><path d="M31.53,42.37V37.55A4.28,4.28,0,0,1,34.8,33a41.43,41.43,0,0,1,14.29-1.68c3.45.21,4.6,1.61,5,5.11s.78,6.82,1.1,10.23a19.92,19.92,0,0,1,0,3.86A6.05,6.05,0,0,1,50,55.84a36.47,36.47,0,0,1-15-.72,3.55,3.55,0,0,1-2.84-3.47c-.23-3.09-.48-6.17-.72-9.26Z"/><path d="M12.82,32.23c1.9.08,3.82.16,5.74.26,2.83.14,4.77,1.65,5,4.44a122,122,0,0,1,.2,12.83c-.15,3.58-1.43,4.87-4.91,5.18a118.72,118.72,0,0,1-12.51.51C2.36,55.39.67,53.61.41,49.7.17,46.07,0,42.43,0,38.79c0-3.18,1.38-5.14,4.49-5.74C7.21,32.53,10,32.48,12.82,32.23Z"/>
    </symbol>

    <symbol id="trash" viewBox="0 0 52.7 60.7">
        <path d="M4.9,19.07c2.66.14,5.15.24,7.62.43,2.63.2,5.26.5,7.88.75,3.4.32,6.76-.22,10.14-.43.75-.05,1.49-.13,2.24-.16a67.48,67.48,0,0,0,16-2.58c.53-.15,1.06-.27,1.79-.46-.05.59-.06,1.06-.13,1.53q-1.17,7.53-1.65,15.14c-.27,4.36-.9,8.71-1.35,13.06-.1,1-.11,2-.22,3-.23,2.13-.51,4.25-.78,6.37a2,2,0,0,1-1.3,1.7,21.21,21.21,0,0,1-3.61,1.4,57,57,0,0,1-11.62,1.89c-1.49,0-3,0-4.47-.09-2.83-.23-5.65-.55-8.47-.88a6.23,6.23,0,0,1-1.56-.47,2.18,2.18,0,0,1-1.33-1.51c-2.16-8.34-4.4-16.66-6.46-25C6.73,29,6.19,25.2,5.46,21.43,5.32,20.7,5.12,20,4.9,19.07Z"/><path d="M18.85,4.11c.18-.63.38-1.29.54-2A2.4,2.4,0,0,1,21.34.3,8.28,8.28,0,0,1,23.11,0c2.54,0,5.08,0,7.61.06A4.78,4.78,0,0,1,35.3,3.32a1.7,1.7,0,0,0,.18.29c3.05.24,6,.47,9,.72.59,0,1.18.18,1.77.24a6.76,6.76,0,0,1,5.48,4.12,12,12,0,0,1,.93,3.73c.16,1.21-.09,1.51-1.28,1.79-3.2.75-6.39,1.56-9.62,2.11A126,126,0,0,1,12,17.52c-3.22-.23-6.44-.66-9.65-1.06A2.43,2.43,0,0,1,0,13.55,7.35,7.35,0,0,1,4,7.93,30.53,30.53,0,0,1,13.38,5C15.14,4.7,16.91,4.43,18.85,4.11Zm14.29-.44A2.42,2.42,0,0,0,31,2.26a36.68,36.68,0,0,0-8.18,0c-1.35.18-1.4.24-1.68,1.91Z"/>
    </symbol>

    <symbol id="upload" viewBox="0 0 39.79 41.18">>
        <path d="M7.88,34.88a166.64,166.64,0,0,0,23.45-1.49c-.25-2.09-.5-4.17-.77-6.48a4.36,4.36,0,0,1,1.3-.48c1.59-.09,3.19-.07,4.79-.11,1.11,0,2,.45,2.08,1.54.43,3.39.86,6.79,1.05,10.2.09,1.58-1,2.34-2.67,2.38L18,40.88l-12.19.3c-.71,0-1.43,0-2.15-.07C.48,40.85.26,40.63.16,37.34.09,34.63,0,31.92,0,29.21,0,27.34.29,27,2.2,26.88c1.11-.07,2.23-.11,3.34-.15,2-.07,2.57.46,2.58,2.49,0,1.35-.16,2.71-.24,4.06C7.86,33.74,7.88,34.2,7.88,34.88Zm24.83-6.49c.16,1.6.26,3,.45,4.42.27,2-.08,2.52-2.19,2.74A213,213,0,0,1,8.54,36.94c-2.68,0-2.95-.31-2.81-3.08.1-1.81,0-3.62,0-5.64l-4.15.67c.18,3.61.35,7,.53,10.49,1.45,0,2.56,0,3.68,0q7.07-.16,14.12-.35,7.91-.21,15.81-.45c2-.06,2.37-.42,2.15-2.45s-.53-4-.84-5.92a17,17,0,0,0-.48-1.82Z"/><path d="M15.8,29.92c-.21-5.2-.4-10.12-.61-15.33-1.37.09-2.45.18-3.54.23a12.88,12.88,0,0,1-2.15,0c-1.57-.2-1.95-.89-1.16-2.29,2.11-3.75,4.25-7.5,6.44-11.21,1-1.72,1.73-1.76,3.14-.28a24.09,24.09,0,0,1,2,2.42c1.82,2.52,3.6,5.07,5.44,7.58,1.39,1.9,1.15,2.49-1.23,2.87-.7.11-1.4.25-2.29.41.09.81.17,1.5.23,2.19.32,3.58.67,7.15.94,10.74.18,2.28-.34,2.86-2.68,2.91C19,30.21,17.6,30,15.8,29.92Zm7.3-18L16.53,2.28,10.76,12.67c1.31,0,2.4,0,3.48,0,2.18.05,2.53.33,2.62,2.47s.07,4.31.08,6.46,0,4.12,0,6.46l4,.25c0-.86,0-1.4,0-1.94-.39-3.89-.82-7.78-1.2-11.68-.21-2.07,0-2.28,2.09-2.61Z"/>
    </symbol>

</svg>
