<svg id="ac5073cc-824d-4b48-9f4f-7d0a7a2b54a4" data-name="Layer 1" xmlns="http://www.w3.org/2000/svg" viewBox="0 0 4000.34 3300.16"><title>right</title><path d="M3047.24,2c-1,3.35,0,6.56.57,9.84C3054,48.3,3062,84.36,3069.87,120.47c8.1,37.1,12.71,74.83,18.34,112.36,5.19,34.59,11.19,69,18.25,103.24,5.12,24.78,9.44,49.72,14,74.6A352.57,352.57,0,0,0,3143.69,488c14.85,34.08,24.69,69.52,31.41,106,6.68,36.34,15,72.37,21.66,108.72,7.12,39,13.06,78.14,19.6,117.22,5.72,34.15,13.19,67.95,20.1,101.88,8.76,43,16.09,86.4,24.38,129.55,3.51,18.3,7.76,36.47,11.9,54.64,2,8.61,2.79,8.84,10.5,4.4,13.59-7.83,26.83-16.25,39-26.12,25-20.25,52.13-37,80.7-51.54a563.14,563.14,0,0,0,53.74-30.79c31-20.3,63.5-37.86,95.65-56.11,4.06-2.3,8.19-4.49,12.07-7.08,43.53-29,89.26-54.46,134-81.48a181.43,181.43,0,0,0,15.72-10.65c29.29-22.19,60.67-41,92.82-58.7,13.42-7.37,26.58-15.32,39.25-23.89,27.09-18.33,55.47-34.41,84-50.23,19.86-11,37.89-24.8,56.64-37.51q4.54-3.08,9.23-6c1.14-.71,2.7-1.16,3.62.15A3.15,3.15,0,0,1,3999,675c-2.07,1.67-4.31,3.12-6.46,4.7-30.93,22.72-63.84,42.28-97.38,60.84q-20.57,11.37-39.89,24.75c-24.16,16.71-50.06,30.5-75.54,45a494.9,494.9,0,0,0-51,33.31c-27.35,20.34-57,37-86.54,53.72-9.56,5.41-19.19,10.79-28.26,17-32.81,22.36-67.29,41.89-101.91,61.2-11.34,6.33-22.59,12.88-33.5,19.9-26.63,17.15-53.83,33.25-82.05,47.68a393.07,393.07,0,0,0-67.06,43.27,358.83,358.83,0,0,1-41.25,28.14c-12.06,7.17-12.21,7.28-8.88,21.16,8.38,35,16.4,70,24.35,105.08,19.81,87.33,38.16,175,59.59,262,11.47,46.55,18.61,94,27.31,141.18,6.65,36.06,16.21,71.4,25,107,21.81,88.57,47.41,176.19,66.2,265.51,16.92,80.47,33.43,161,51,241.36,13,59.52,23.89,119.47,36.39,179.1,17.89,85.37,37.2,170.43,56.32,255.53,12.56,55.86,25,111.8,32.56,168.62a1389.85,1389.85,0,0,0,28.71,152c9.23,37.17,21.89,73.37,32.54,110.15,12.77,44.13,26.14,88.11,36.1,133,2.52,11.37,4.76,22.8,7.08,34.22a50.43,50.43,0,0,1,.92,6.92,2.63,2.63,0,0,1-2.22,2.87,2.88,2.88,0,0,1-3.29-1.66,21.27,21.27,0,0,1-1.6-4.73c-16.64-88.92-45.9-174.42-70.92-261.07-12.31-42.6-20.49-86.15-27.55-129.87-7.43-46-13.5-92.2-23.09-137.87-14.71-70.06-30.92-139.78-46.54-209.63-18.81-84.16-35-168.86-52.45-253.29-17.14-82.8-36-165.25-52.79-248.12-16.93-83.6-38.7-166-59.78-248.54-12.75-50-27.06-99.62-36.58-150.4-7.43-39.59-14.44-79.26-22.21-118.78-9.7-49.34-23.77-97.7-34.07-146.89-14.73-70.39-31.26-140.38-46.52-210.64-3.25-15-7-29.82-10.61-44.7-2-8.34-3-8.79-10.62-4.06-14.43,9-29,17.73-43,27.29-25.88,17.65-52,34.93-79,50.85-22.1,13-43.57,27.07-64.65,41.7a596.8,596.8,0,0,1-66.68,40.26,498.13,498.13,0,0,0-79.06,50.48,483.75,483.75,0,0,1-49.38,34c-24.27,14.6-47.91,30.16-71.11,46.42-24.87,17.42-52.1,31-78.23,46.28-8.91,5.22-17.9,10.37-26.34,16.28a844.82,844.82,0,0,1-92.22,55.93,659.85,659.85,0,0,0-63.42,37.94c-28.71,19.44-59.11,36.12-89,53.6-12.38,7.23-24.57,14.72-36.26,23a345.15,345.15,0,0,1-56.07,32.63c-30.06,13.75-58.54,30.26-86.16,48.37-15.62,10.23-32.19,18.79-49.07,26.79-24.38,11.55-48.71,23.21-72.12,36.67-20.81,12-42.47,22.24-64.35,32.07a476,476,0,0,0-62.47,33.46,487,487,0,0,1-64.91,35.26c-37.77,16.85-73,38.59-110.15,56.61-23.36,11.34-47.78,20.7-69.59,34.94-41.13,26.86-86,46.67-129,70-31,16.86-62,33.77-94.09,48.5a389.42,389.42,0,0,0-44.71,24.41c-25.69,16.15-52.53,30.2-79.48,44.08-19.83,10.21-39.55,20.66-58.44,32.6-33,20.87-69,36.14-103.24,54.74-16.67,9.06-32.89,19-49.73,27.73-30.13,15.65-61.43,29.25-90.71,46.33-52.69,30.74-108.38,55.75-161,86.58-26.75,15.67-55.48,27.48-83.45,40.77a342.3,342.3,0,0,0-30.8,16.51c-36.46,22.22-75.46,39.64-113,59.86s-75.51,39.54-115.06,55.61c-13.89,5.65-27.05,12.91-40.15,20.19A756.39,756.39,0,0,1,520,2655.51c-31.73,13.23-61.56,30.21-92.1,45.79-10.09,5.14-20.13,10.38-30.31,15.32-21.32,10.36-42,21.79-61.3,35.57-32.72,23.42-68.68,40.46-105.32,56.7-30.78,13.64-62.69,24.26-93.46,37.79a332,332,0,0,0-45.66,24.68c-28.66,18.4-59.13,33.3-89.87,47.76v-4c16-5,30.27-13.65,45.07-21.17,17.24-8.76,33.59-19,49.92-29.35,24.64-15.55,51.36-26.57,78.49-36.92,39.19-14.95,77.67-31.64,114.9-51,13.32-6.94,25.72-15.4,38.05-23.93a571.52,571.52,0,0,1,74.17-43.2c19.13-9.38,37.94-19.42,56.81-29.32,18.59-9.74,37.28-19.22,56.64-27.39,24.54-10.36,48.77-21.46,72-34.5,28.52-16,58.65-28.51,88.41-41.9,39.51-17.77,76.73-40.1,115.55-59.25,28.39-14,56-29.38,83.38-45.29,24.5-14.24,51.71-23.16,76.37-37,60.64-34.16,123.74-63.73,183.9-98.81,25.32-14.77,52.43-26.18,78.53-39.5,29.07-14.85,56.27-33.2,86-46.75,46.8-21.33,89.22-50.61,135-73.6,37.86-19,73.86-41.2,110.72-61.91,23.54-13.22,49-22.73,72.42-36.08,37.37-21.24,75.56-40.88,114.18-59.74a181.5,181.5,0,0,0,19.12-10.81,717.07,717.07,0,0,1,101.9-55,427,427,0,0,0,40-20.57c23.13-13.26,46.92-25.25,71.11-36.44a566.45,566.45,0,0,0,69.22-37.8c21.61-13.92,44.62-25.26,68-35.74a625.35,625.35,0,0,0,56.19-28.29c23.13-13.28,47.15-24.82,71.22-36.24,16.87-8,33.6-16.31,49.16-26.64a709,709,0,0,1,93.3-52,255.46,255.46,0,0,0,40.59-23.5c27.73-19.76,57.47-36.22,86.87-53.24,17.31-10,34.34-20.51,50.84-31.76,23.74-16.17,48.88-29.85,74.08-43.48,23.46-12.69,46.4-26.24,68.12-41.72,19.59-14,40.54-25.62,61.51-37.26,24.2-13.44,47.78-27.82,70.22-44,15.13-10.94,31.12-20.58,47.09-30.22a563.87,563.87,0,0,0,56.91-38.86,478.81,478.81,0,0,1,76.48-49,667.63,667.63,0,0,0,80-49.13c21.22-15,43.61-28.25,65.93-41.54,38.66-23,74.23-50.84,113.42-73,6.08-3.43,4.92-7.8,3.76-12.74-6.74-28.52-12.66-57.21-18-86-6.72-36.33-12.42-72.88-20.13-109-14.26-66.79-25.06-134.15-35.7-201.56-5.14-32.58-13.34-64.55-19.39-97-5.12-27.48-9.77-55.07-18.52-81.76-4-12.35-8.11-24.68-13.4-36.56-13.77-30.9-22.91-63.17-28.69-96.45-6-34.44-13-68.68-19.37-103-6.38-34.7-11.22-69.68-16.17-104.62-5.46-38.6-12.64-76.84-21.23-114.87-5.71-25.31-10.68-50.82-13.81-76.62Z"/></svg>