<svg id="e45773c5-0332-414e-b6b0-14c597da7c94" data-name="Layer 1" xmlns="http://www.w3.org/2000/svg" viewBox="0 0 1087.28 379.07"><title>title_b</title><path d="M943.09,77.1c-5.41,16.22-11.53,31.47-16,47.33-6.47,23.1-9.21,47-15.44,70.16-6.5,24.1-13,48.18-18.94,72.43-4.82,19.87-6.73,40.36-11.67,60.23-3.09,12.43-6.48,24.85-13.15,36-3.54,5.92-7.67,7.75-12.73,6.46-2.43-.62-4-2-4.24-4.34-2.15-19.27-8.68-37.64-11.56-56.72-5.5-36.44-16.65-71.67-23-107.89-8.08-45.88-17.48-91.57-23-137.84-2.18-18.34-5-36.57-7.21-54.89-.38-3.15.4-6.22,3.55-7.58s5.36.76,7.11,3.15c2.29,3.11,4.51,6.37,4.71,10.33.57,11.54,3.88,22.61,5.58,33.95,3.45,23,5.62,46.31,10.21,69.11,7.57,37.7,12.47,75.9,21,113.36,7.91,34.9,14.4,70.1,23.19,104.79,0,.13.24.22.53.45,2.58-3.86,1.72-8.34,2.23-12.47,2.36-19,7.56-37.47,11.37-56.19,4.76-23.45,7.7-47.27,12.22-70.78,4-20.92,11.32-41,16.69-61.64C910.37,112,914.65,89,919.83,66.34c3.46-15.2,10.32-29.16,16.44-43.37a15.66,15.66,0,0,1,2.94-4c.82-.91,2.74-1.49,3.08-.62,1.81,4.64,7.85,5.27,9,10.8C956,51.42,963.58,73.05,965.23,96c1.18,16.47,5.89,32.42,8.2,48.7,5.86,41.27,15.44,81.76,24.07,122.47,2.28,10.73,3.74,21.65,6.63,32.26,1.21,4.48,2.56,8.91,3.85,13.37.36,1.24.48,3,2.07,3,1.25,0,1.49-1.58,2-2.61,3.32-6.85,4.31-14.28,5.64-21.65,8-44.34,13.72-89.06,23.3-133.16,7.26-33.46,12.49-67.37,19.71-100.88,3.22-15,7.32-29.71,9.36-44.93,1-7.11,4-9.69,10.55-10.37,4.57-.48,6.3,1,6.58,5.85.58,9.77-1.83,19.19-3.68,28.63-4.22,21.54-10.66,42.64-13.7,64.38-5.19,37.14-15.53,73.22-22.07,110.05-5.94,33.41-12.12,66.77-19.72,99.84a306,306,0,0,1-16.16,49.28,30.48,30.48,0,0,1-2.28,4.44c-1.09,1.72-2.51,3.37-4.7,3.3-2.47-.08-2.86-2.43-3.68-4.21-9.9-21.53-14.56-44.47-19-67.59-5.93-30.89-13.8-61.41-18.73-92.49-3-18.88-3.75-38.13-6.85-57-3.51-21.33-5.18-43-10.85-63.95C945.32,81,945.26,79.1,943.09,77.1Zm-77,277a148.32,148.32,0,0,0,9.59-31.05c4.1-20.88,7.09-42,11.82-62.73,5.84-25.61,14-50.67,19.7-76.34,4-18.17,7.45-36.49,11.56-54.65,4.94-21.78,15-42,19.92-63.81a11.19,11.19,0,0,1,1.12-2.76,2.53,2.53,0,0,1,2.88-1.49c1,.24,2.16,1.17,1.92,2-1.63,5.78,1.48,9.67,5,13.48.3.33.3.94.44,1.42,6.71,23.28,8.94,47.39,12.9,71.17,3,18.2,3.93,36.75,6.93,55,4.77,28.9,11.88,57.36,17.64,86.07,4.26,21.22,7.8,42.58,15.86,62.81.52,1.29.4,3.51,2.28,3.44,1.64-.06,1.93-2.1,2.44-3.44,5.19-13.7,10.35-27.48,13.6-41.74,7.62-33.39,13.88-67.05,19.57-100.84,6.46-38.36,17.36-75.84,23.18-114.38,3.72-24.65,11.57-48.5,15.73-73.11.66-3.93,1.72-7.81,1.51-11.85,0-1,0-2.25-1.35-2.24-.62,0-1.42.8-1.83,1.43a11.14,11.14,0,0,0-1.49,4.72A120.71,120.71,0,0,1,1075,27.49c-7.17,28.57-12.79,57.47-18.32,86.38-4.63,24.17-9.18,48.36-14.56,72.38-6.79,30.37-9.8,61.41-16.1,91.87-2.78,13.46-3.36,27.49-9.79,40.08-1.28,2.52-2,5.62-5.6,5.56s-5.37-2.49-6.48-5.45c-2.23-5.91-4.73-11.77-6.35-17.86-6-22.52-9.47-45.6-14.89-68.27-7.08-29.63-11.55-59.77-16.25-89.87-2.16-13.79-6-27.35-6.86-41.33C958.3,77.92,951.41,55.92,947,33.44c-.34-1.74-.66-3.58-3.26-3.68-2.26-.08-3.22,1-4.09,2.84-5.81,12.38-11,25-14,38.37-4.93,22.25-9.06,44.71-15,66.69-7.25,26.79-16.34,53-20.2,80.73a597.34,597.34,0,0,1-15.33,75.74c-4.58,16.7-5.27,34.16-9.24,51C865.21,347.72,864.5,350.25,866.14,354.11ZM792,14.39c3.09,16.71,4.35,33.66,6.64,50.45,6.05,44.53,14.89,88.61,23,132.8,6.86,37.49,18.69,73.91,24.22,111.71,2.34,16,8.11,31.29,9.51,47.46a5.57,5.57,0,0,0,3.12,4.81c.87.43,1.84,1.11,2.8.52,1.32-.83.65-2,.28-3.1-3.41-10.27-5.49-20.88-8.16-31.34-7.87-30.83-13.34-62.16-20.41-93.16-8.65-37.94-13.37-76.68-21-114.89-4.64-23.29-6.8-47.08-10.26-70.62-1.69-11.51-5.06-22.75-5.4-34.49a11.34,11.34,0,0,0-1.25-3.76c-.33-.77-.91-1.47-1.89-1.3s-1.17,1-1.18,1.91S792,13.39,792,14.39Z"/><path d="M5.79,287.48c-.3-19.26-2.32-41.49-3.72-63.75a69.52,69.52,0,0,1-.24-10c1.58-19-1-37.92-1.64-56.87A338.42,338.42,0,0,1,1.33,116c1.28-15.06-.27-30.27.44-45.42C2.38,57.73,3.28,45,7,32.59c5.64-19,8.84-20.16,27.37-18.73,30.72,2.37,60.93,8.87,88.2,24.85,12,7,22.21,15.51,29.55,27.62,17.59,29,26,60.49,24.24,94.21-1.85,36.21-3.52,72.55-12.23,108-3.78,15.37-8.43,30.48-15,45-2.74,6.07-7.34,10.65-11.64,15.51-17.39,19.65-39.19,32.83-63,43-8.39,3.58-17.28,4.87-26.31,5.25-6.31.26-12.59,0-18.84,1.68-5.26,1.42-16-7.1-17.45-13.31A150.38,150.38,0,0,1,8,339.45C7.29,323.15,5.31,306.91,5.79,287.48ZM13,32.63c-1.38,1.22-1.4,2.94-1.89,4.46C7.56,48.2,7.68,59.74,7.15,71.2c-.89,19,1.23,38-1,56.92a89.09,89.09,0,0,0-.45,13c.41,15.31,1,30.62,2.48,45.87,1.33,13.62-.56,27.25.71,40.94,3.13,33.66,3.08,67.52,5.3,101.25a245.36,245.36,0,0,0,4,33.19c1,4.82,4,8.75,8.47,8.48,14.54-.88,29.58,1.07,43.46-4.75,20-8.39,39.57-17.67,54.82-33.88,6.16-6.54,13.54-12.1,17.6-20.31,6.68-13.48,10.67-28,14.49-42.46.14-.52.63-1.23-.51-1.71-3.49,8.08-6.72,16.27-10.51,24.2-7.52,15.73-17.24,29.37-33.31,38C88.7,342.65,63.3,351.63,38,360.82a26,26,0,0,1-4.37,1,2.93,2.93,0,0,1-3.41-1.47c-.71-1.41,0-2.57,1-3.58,1.93-1.95,4.44-2.9,6.94-3.84,21.61-8.19,43.5-15.48,64.47-25.57,18-8.67,29.12-22.12,38.14-39.11,16.22-30.58,17.66-63.85,19-97.1,1-24.43-3-48.5-9.45-72-6.2-22.73-17.55-42.58-36.63-57C86.77,41.91,55.28,32.89,22.91,26.34c-3-.61-3.77.83-3.86,3.52-.24,7.49-1,15-.65,22.47.55,12.32,1.07,24.65.42,37-.72,14-1.86,27.91-1.73,41.93.18,19.14,1.76,38.29.13,57.45a35.27,35.27,0,0,0,.22,6.49c3.25,31.66,4.56,63.42,4.79,95.24.13,18.14-1,36.33,1.71,54.4a19.24,19.24,0,0,1-.34,8.43c-.33,1.09-.7,2.39-2.26,2.21s-1.68-1.38-1.82-2.59c-.92-8.27-2.63-16.53-2.66-24.8-.16-41.64.2-83.29-4.12-124.78-1.7-16.33.7-32.61,0-48.93-.55-12-1.52-24.06-.58-36C14.27,91.26,13.55,64.11,13.76,37,13.78,35.55,14.26,34,13,32.63Zm38.92-7.41a6.64,6.64,0,0,0,4.3,2.83A276.4,276.4,0,0,1,87.43,40c38,16.65,62.37,44.48,70.17,85.84.37,2,.9,3.89,1.32,5.84s.62,3.92,2.62,6.33c-1.78-18.13-3-35.25-8.22-51.69-7.22-22.59-20.7-38.8-45-44.14C101.67,40.7,95,38.9,88.94,35.7,77.66,29.7,65.16,28.61,51.91,25.22Z"/><path d="M285.74,294.29c-1.65,7.09-1.68,14.06-1.61,21a320.87,320.87,0,0,1-1.86,40.89c-.2,1.7.36,4.3-2.33,4.14-2.45-.15-2.14-2.63-2.16-4.39-.32-20.49.07-41,1.35-61.43.82-13.16.79-26.3.78-39.46-.06-39.16-.22-78.32,0-117.47.08-15.31.94-30.62,1.55-45.93.41-10.2-1.71-20.22-2-30.37q-.49-16-.85-32c-.06-2.87,1.1-4.83,3.85-6.35,15.05-8.31,31.27-12,48.27-12.82A97,97,0,0,1,352.56,12c25,4.46,48.81,11.69,68.07,29.72,11.57,10.84,15.61,24.77,18.53,39.47,1.79,9,.95,18-1.1,26.76-3.92,16.72-8.47,33.26-19.38,47.17A57,57,0,0,1,404.86,168c-21,13.6-43.62,22.74-68.66,25.34-5.53.57-5.54,1-3.12,5.88,10.68,21.47,23.06,42,34.15,63.29,11,21,21.94,42.27,37.71,60.48,6.08,7,11.16,14.94,16.45,22.62,3.58,5.21,1.66,9.13-4.58,9.57a55.45,55.45,0,0,1-11.45-.28c-2.81-.39-7.14-.41-4.43-5.69.77-1.49-.86-2.72-1.76-3.87C372.33,311.6,349,275.67,331.73,236a208.1,208.1,0,0,0-17.61-32.48c-2.07-3.09-3.51-6.48-7.76-7.9-2.66-.89-3.16-4.76-3-7.45a8.89,8.89,0,0,1,6.07-7.9c6-2.25,12.33-2.61,18.61-3.32,36.31-4.14,64.29-21.83,83-53,9.15-15.31,9.41-32.71,3.77-49.35-4.25-12.52-13.71-21.9-25.35-27.92-19.08-9.88-39.14-16.79-61.23-15.41-8.87.56-17.34,3.19-26.1,4.24-2.91.35-2.79,2.87-2.85,5.06-.21,8-.54,16-.59,24-.1,19.14-1.49,38.24-.91,57.44.89,29.12-.49,58.33-2.7,87.33a819.66,819.66,0,0,0-.77,112.24c.69,11.44,2.51,22.82,2.84,34.31a24.8,24.8,0,0,1-1.07,8.39,6.18,6.18,0,0,1-9.3,3.27c-1.71-1.15-2.48-3.06-.43-3.89,6-2.43,4-7.44,3.89-11.51a137.39,137.39,0,0,0-1.58-18.89c-1.8-11.58-1.88-23.21-2-34.87C286.61,297.07,286.89,295.69,285.74,294.29Zm59.89-111.2c.87.78,1.67.3,2.46.21C367.48,181,384,171.51,400.5,162.13c5.11-2.91,9.21-7.07,12.89-11.69,9.85-12.38,13.65-27.27,17.31-42.13a63.94,63.94,0,0,0,1.12-27.24c-3-16.27-9.39-29.91-23.59-40.1C396,32.21,383.05,26.52,368.75,22.59c-28.16-7.75-55.71-9-82.65,4.52-2.68,1.34-3.4,2.4-3.24,5.51,1.08,21.26,3.65,42.5,3.09,63.78-1.15,43-.74,86-.83,129q0,6.15,0,12.3l1.32,0c.41-2.46,1-4.9,1.2-7.38,2.57-28.37,3.19-56.88,3.83-85.31.78-34.14,1.57-68.27,2.72-102.39.1-3-.17-5.24-4.05-3.74a2.11,2.11,0,0,1-3-1c-.72-1.5.17-2.59,1.35-3.35a14.35,14.35,0,0,1,3.13-1.51A147.83,147.83,0,0,1,329.12,25c22.88-1.69,43.82,5.52,63.64,15.85,13.16,6.87,23.73,17.38,28.57,31.57a67.71,67.71,0,0,1-4.37,55.2c-10.77,20.27-27.9,34.14-47.85,44.66C361.53,176.32,353.51,179.51,345.63,183.09Zm-29.81,10.37c-.43,1.81.67,2.77,1.37,3.82,9.78,14.55,17.65,30.13,25.11,45.95a401.55,401.55,0,0,0,28.52,51.5c11.89,17.87,24.91,35,37.44,52.41a11.7,11.7,0,0,0,1.58,1.92,3.19,3.19,0,0,0,4.15.3c1.56-1.13.29-2.44-.42-3.45-4.34-6.1-8.26-12.59-13.22-18.16-16.16-18.14-26.87-39.74-37.75-61-10.63-20.73-22.73-40.69-32.49-61.86-1-2.25-2.69-4.21-3.89-6.39C323.9,194.32,320.17,193.38,315.82,193.46Z"/><path d="M625,36.6a5.88,5.88,0,0,0-3.88,4.25c-7.57,25.68-16.69,51.07-20.25,77.66-4,29.57-11.48,58.48-15.21,88-2.74,21.64-4.76,43.38-9.56,64.66-5.68,25.16-11.63,50.26-19,75a41.35,41.35,0,0,1-5.52,12.24c-1.08,1.54-2.53,3.13-4.54,1.84s-.5-2.84.28-4.28c2.64-4.88,4-10.25,5.39-15.53,10.06-37.45,20.61-74.9,24.47-113.57,2.76-27.62,9.36-54.42,14-81.62,1.26-7.34,2.18-14.74,2.83-22.2-2.67,5.33-3.19,11.21-4.34,16.9-7,35.08-14.59,70.06-20.86,105.27-4.88,27.37-9.82,54.7-15.68,81.88-1.76,8.16-4.75,15.94-7.27,23.86-.55,1.73-.83,4.64-3.59,3.8-2.49-.76-1.74-3.39-1.22-5.23,4.69-16.85,8-34,11.64-51.1,7-33.21,11.72-66.87,19-100.05C584,142,595,85.29,612.26,30.07c2.38-7.57,5.53-13.84,11.25-19.14,4.44-4.12,7.55-4,11,1,5.45,7.87,7.67,17,9.54,26.12,3.29,16.12,6.92,32.15,10.6,48.18,5.26,23,11.55,45.71,14.71,69.25,2.82,21,10,41.42,12.94,62.52,4.08,29.17,10.3,58,13.89,87.24,1.72,14,4.86,27.85,7.49,41.75.92,4.81.51,9.09-2.59,13.14-2.73,3.57-5.48,4.19-8.69,1a25.77,25.77,0,0,1-6.54-11.1c-2.87-9.54-6.18-18.89-7.83-28.86-2.59-15.58-6.9-30.86-9.64-46.42-2.27-13-5.09-25.78-8.29-38.54-1-3.87-2.41-4.5-5.83-2.85a31.82,31.82,0,0,1-13.62,2.75c-17,.11-34,.48-50.91,1.48-1.27.08-2.39-.05-2.81-1.43a2.91,2.91,0,0,1,1.46-3.42c2.32-1.51,5-1.75,7.66-1.8q23.48-.41,47-.91c2.92-.07,8.11-.07,7.84-2.13-.44-3.4-5-1.69-7.64-1.54-15.63.91-31.25,2-46.92,2-2,0-3.93.65-5.91.83-1.41.13-3.31.74-3.76-1.32-.42-1.88,1.35-2.48,2.7-3.05a24.36,24.36,0,0,1,8.76-1.77c15.15-.48,30.27-1.58,45.36-3a21.49,21.49,0,0,1,7.43.61c6.1,1.57,6.55,1.13,5.3-5.33-1.74-9-3.66-17.94-5.43-26.92-6.31-32-11.59-64.19-17.15-96.33-2.88-16.6-3-33.5-6.74-49.94C626.42,40.26,626.34,38.25,625,36.6Zm71.15,318.08a12.55,12.55,0,0,0,.81-7.76c-2-10.61-4.64-21.12-6.11-31.8-4.3-31.33-11-62.25-15.11-93.61-3.8-29-13.58-57-16.57-86.22-1.56-15.24-7-29.76-10.5-44.64-4.12-17.66-8-35.32-11.26-53.15-1.26-6.83-3-13.69-6.61-19.81-1-1.71-2.11-4.1-4.38-1.72-1.23,1.3-4.58,1.79-1.69,5.6a33.07,33.07,0,0,1,6.55,14c2.44,13,3.19,26.11,5.27,39,5.27,32.69,10.44,65.41,17.07,97.86,6.93,33.9,14,67.77,21.07,101.65,3.29,15.8,7.1,31.51,9.77,47.42,1.59,9.47,5,18.28,7.59,27.37C692.67,351,693.48,353.32,696.15,354.68Z"/></svg>