<svg version="1" xmlns="http://www.w3.org/2000/svg" width="1054.667" height="1054.667" viewBox="0 0 791.000000 791.000000"><path d="M380.5 17.5c-20 2.8-25.1 4.8-48 19-14.1 8.8-49.9 28.7-57 31.8-3.3 1.4-15 7.3-26 13-80.4 41.8-82.7 43-95.4 51.1-3.6 2.4-16.8 10-29.4 16.9-12.5 7-24.6 13.9-27 15.3-4.4 2.8-22.5 20-25.7 24.4-1.8 2.6-1.8 2.6.3 2.7 1.2 0 4.7.4 7.7.8s6.4.9 7.5 1.1c1.1.1 2 .3 2 .4 0 .2 2.5.7 7.5 1.5 6.1.9 23.9 6.9 32.6 11 10 4.7 48.3 27 60.6 35.3 11.2 7.5 19.3 12.4 30.8 18.2 5.8 3 13.4 7.2 17 9.4 3.6 2.2 9 5.3 12 6.9 20.6 11.1 48.4 27.5 55.7 32.9 2.9 2.1 5.6 3.8 6.2 3.8.5 0 1.1.3 1.3.7.4.9 9.6 7.3 10.4 7.3.4 0 2.3 1.4 4.4 3 2.1 1.6 4.2 3 4.7 3s1.8.8 2.9 1.8c1 .9 3.9 3.3 6.4 5.2 2.5 1.9 5 3.9 5.6 4.5.6.5 3.3 2.9 6 5.1 20.9 17.6 23.7 20.4 30.7 31.4 2.4 3.6 5.4 9.1 6.7 12.2 1.4 3.2 3 5.8 3.5 5.7.6 0 3.2-3.5 6-7.7 7.2-11.1 43.2-46.5 62.5-61.4 3-2.3 5.8-4.7 6.2-5.3.5-.6.8-.6.8 0 0 .5.6.3 1.3-.5.7-.8 7.7-5.9 15.7-11.2 18.2-12.1 22.4-15.1 22.8-16.1.2-.4 1-.7 1.8-.7s1.4-.3 1.4-.8c0-.4 1.8-1.6 4-2.6 2.2-1.1 4-2.4 4-2.9 0-.6.3-.8.6-.4.3.3 2.7-.7 5.2-2.2 2.6-1.5 11.7-6.3 20.2-10.6s15.7-8.1 16-8.4c1.1-1.4 34-18 35.8-18.1.6 0 1.2-.5 1.2-1.2 0-.6.3-.9.6-.5.8.8 32.8-16.1 37.4-19.8.8-.7 6.2-3.6 12-6.6 5.8-2.9 11.2-5.8 12-6.4.8-.6 4.4-2.4 8-3.9 3.6-1.5 7.9-3.4 9.7-4.2 7.5-3.4 26.3-10.3 29.7-10.9 2-.4 3.6-1.1 3.6-1.5 0-.4-5.3-4.4-11.7-9-6.5-4.6-17.2-12.2-23.8-17-15.6-11.3-22.1-15.6-33-22.1-5-2.9-14.8-9.1-22-13.9-15.1-10.1-20.5-13.3-37.5-22.5-14.3-7.8-41-23.2-48.8-28.1-2.9-1.9-9.3-5.5-14.4-8-11.7-5.9-28.3-15.4-37.3-21.4-3.8-2.6-9.1-5.9-11.7-7.4C466.5 36 438.5 26 434.6 26c-2 0-3.6-.7-4.3-1.9-.8-1.2-4.6-3.1-9.5-4.7-10.2-3.3-25.4-4-40.3-1.9zM398 126c4.6.4 19.7 12.1 18.4 14.1-.3.5-.1.9.4.9 1.7 0 4.5 9.2 4.7 15.5.3 6.3-2.6 17.6-4.6 18.3-.5.2-.9.8-.9 1.4 0 .6-3.1 4.1-7 7.8-11.9 11.6-20.9 14.4-33.3 10.5-3.1-.9-6.4-2.6-7.3-3.6-.9-1.1-2.2-1.9-2.8-1.9-2.4-.1-10.9-13.5-12.3-19.4-.8-3.5-.9-15.6 0-15.6.4 0 .7-.7.7-1.5 0-5.8 12.3-20.5 20.4-24.4 5.6-2.7 14.4-4 19.6-2.9 1.9.4 3.7.7 4 .8z"/><path d="M63.7 218.4c-.3 4.4-.2 18.2.3 30.6 1.8 44.8.8 135-2.1 177.5C56 515.9 57 552 66.2 579.9c2.9 8.8 8.2 13.9 23.1 22.1 6.5 3.6 19.1 10.7 28 15.9 8.9 5.1 22.7 12.8 30.7 17.1 8 4.2 24.4 13.7 36.5 21 33.1 19.9 63.5 37.6 86 50 13.7 7.5 23.1 13.5 52.3 33.3 7.8 5.3 15.2 9.7 16.5 9.8 1.2 0 3.1.2 4.2.4 18.7 3.7 38.2 1 37-5-.2-1.1-.4-2-.5-2-.1 0-.3-.7-.5-1.5s-1-3.8-1.8-6.5c-.7-2.8-1.2-8.2-1.1-12 .4-14.4.4-22.7-.1-23.5-1.2-2-1.9-16.8-1.9-40.5.1-25.9.8-42.9 3-70 .4-5 .7-11.3.7-14 0-7.6-1.3-40.3-1.9-46.5-.3-3-.7-8.4-.9-12-.2-3.6-.7-8.8-1.1-11.5-.4-2.8-.7-5.2-.7-5.5 0-.3.3-3.7.7-7.5.7-8.4.9-9.3 3.4-18.1 2.1-7 2.8-11.3 3.7-23.9.3-3.9.7-8.6 1-10.5.5-4.3-.9-14.9-4-29-.4-1.8-1.9-5.9-3-8.5-.8-1.7-1.8-4.3-2.4-5.8-.6-1.5-1.6-2.7-2.2-2.7-.7 0-1-.3-.6-.6.8-.8-6.2-11.1-10.5-15.7-1.8-1.8-5.8-5.3-8.8-7.8-8.4-6.8-9-7.2-11.8-9.7-1.5-1.2-5.2-4.2-8.2-6.5-3-2.3-6.3-4.9-7.3-5.8-.9-.9-3-2.2-4.5-3-1.4-.8-3.5-2.1-4.5-2.9-1-.8-2-1.3-2.4-1.2-.3.2-.9 0-1.2-.5-.3-.4-4-3-8.1-5.8-4.1-2.7-7.7-5.2-8-5.5-1.1-1.2-27.2-16.6-31-18.3-.8-.4-2.8-1.5-4.5-2.5-1.6-1-6.1-3.6-10-5.7-13.6-7.4-18-9.8-21.5-12-3.8-2.4-14.7-8.3-25-13.6-3.6-1.9-6.7-3.7-7-4-.3-.3-1.6-1.2-3-1.9s-7.8-4.8-14.2-9.1c-6.5-4.4-12-7.9-12.2-7.9-.2 0-2.8-1.6-5.7-3.5-3-1.9-5.9-3.5-6.6-3.5-.7 0-1.3-.4-1.3-1 0-.8-2.7-2.6-10.1-6.5-1.1-.5-1.9-1.3-1.9-1.7 0-.5-.4-.8-.9-.8-.7 0-7-3.5-16.1-9-4.5-2.7-24.2-9.8-29.1-10.4-1.3-.2-3.1-.6-3.9-.9-.8-.3-4.2-1-7.5-1.6-6.9-1.2-10.5-1.9-15.6-3l-3.6-.8-.6 8.1zm79.8 98c6.6 1.5 17.8 11 19.1 16.2.4 1.6.9 3.3 1.3 3.9 1.3 2.2 2.1 13.1 1.2 15-.3.5-.6 1.7-.8 2.5-.4 3.4-2.8 9.6-4.1 11.2-.8 1-1.2 1.8-.8 1.8.4 0-.5 1.2-1.9 2.7-1.4 1.5-2.5 3.1-2.5 3.5 0 .5-.7.8-1.5.8s-1.5.4-1.5.8c0 1.1-7.7 4.8-11.8 5.7-5.1 1.1-13.2.8-14.8-.6-.8-.6-1.4-.9-1.4-.5 0 1.3-7.6-3.3-12.2-7.4-5.9-5.2-8.5-8.8-10.8-15-1.9-5.3-2-14.6-.1-19.3.6-1.6 1.1-3.3 1.1-3.8s.5-.9 1.1-.9c.5 0 .7-.5.4-1-.3-.6-.1-1 .4-1 .6 0 1.1-.5 1.1-1.1 0-1.5 6-6.8 10.5-9.1 9-4.7 19.5-6.4 28-4.4zm142.6 95c2.9.9 6.4 2.3 7.8 3.2 3.4 2.2 13.9 13.4 12.6 13.4-.3 0-.3.6.2 1.2.4.7.8 1.6.9 2 .1.5.2.9.4 1 .7.9 1.2 5.2 1.2 10.8.1 5.1-.5 7.8-2.6 12.4-2.6 5.7-9.2 13.6-11.4 13.6-.6 0-1.2.4-1.4.9-.1.5-3 1.8-6.3 2.9-15.4 5.2-31.8-1.4-39.2-15.9-2.5-4.7-2.8-6.5-2.8-14.4 0-7.5.5-9.9 2.5-14 6.9-14.3 23.1-21.5 38.1-17.1zm-134.3 93.3c5.3 3.4 11.6 10.9 12.1 14.6 0 .4.7 2 1.5 3.5 2.2 4.3 1.5 19.5-1.1 25.4-4.1 9.1-14.2 16.8-22.4 17.1-2.1.1-3.9.6-3.9 1 0 .5-.4.6-.9.2-.5-.3-2.2-.7-3.8-1-8.7-1.3-15.1-5.2-20-12.1-6.2-8.7-8.8-25.3-5.2-33.4.9-1.9 1.7-4 1.9-4.5.4-1.4 11-11.5 11.8-11.3.4.1 2.1-.5 3.7-1.3 1.7-.8 4.8-1.7 7-1.8 2.2-.2 4.1-.4 4.3-.6.7-.7 12.5 2.6 15 4.2zm133.7 73.6c3.4.8 9.8 4.7 13.3 8 5.8 5.5 8.5 12.1 8.5 20.7 0 4.1-.2 8.2-.5 9-.9 2.9-2.9 7.5-4.9 11.5-2.3 4.4-11.7 13.8-13 12.9-.5-.3-.9-.1-.9.4s-1.2 1.3-2.7 1.6c-8.7 2.1-10.3 2.3-10.3 1.2 0-.7-.3-.8-.8-.1-1.2 1.7-8.4.5-14.1-2.4-3.1-1.6-13.3-10.5-13.1-11.3.1-.2-.5-1.9-1.3-3.8-5.5-13.2-5.7-23.7-.7-32.6 3.5-6.2 7.8-10.7 12.2-12.5 1.5-.6 2.8-1.6 2.8-2.1s.3-.7.8-.5c.4.3 1.6.1 2.7-.3 2.1-.9 18.4-.6 22 .3zM716 211.5c-5.4 1.4-18.1 6.4-19.4 7.6-.6.5-1.6.9-2.4.9-3.4 0-38 18.1-63.2 33-3.1 1.8-20.4 10.1-26.1 12.5-8.2 3.5-29.5 14.5-34.9 18.2-2.5 1.6-10.3 6-17.5 9.8-25.6 13.3-43.3 23.2-45.5 25.5-1.2 1.2-12 8-12.8 8-.5 0-1.7.8-2.8 1.8-1 1-4.8 3.8-8.4 6.2-3.6 2.5-7.5 5.5-8.7 6.7-1.2 1.3-2.6 2.3-3 2.3-.4 0-3.9 2.9-7.8 6.5-3.8 3.6-11.5 10.7-16.9 15.8-5.5 5-12.9 12.1-16.6 15.7-6.6 6.5-16 18.8-16 20.9 0 .6-.4 1.1-.8 1.1s-1.6 1.3-2.5 3c-1 1.6-2.3 3.5-3 4.2-3.5 3.6-4.9 9.2-5.3 20.7-.4 17.1-1.4 35.2-1.9 38.1-.4 2.1-1.1 5.1-2.1 9.2-.1.5-.2.9-.4 1-.3.5-.9 4.3-1.2 7.6-.1 1.8-.6 3.5-1 3.8-.4.3-.5 1-.3 1.7s.6 3.4.9 6.2c.4 2.7.8 6.6 1 8.5.7 5.8 1.6 14.1 2.3 22 .9 10.1.9 59.4 0 70-.4 4.7-.9 11.9-1.1 16-.3 4.1-.7 12-1.1 17.5-1.7 27.9-1.3 54 1 67 .3 1.6.5 8.2.5 14.5 0 9.1.4 12.6 2 16.8 1.1 2.9 2.3 7 2.6 9 .6 4 5.9 14.5 9.2 18 .6.7 1.2 1.8 1.2 2.4 0 .5 1 2.4 2.2 4 2.1 3 2.3 3 8.4 2.5 4.5-.4 11.3-2.6 22.8-7.1 9-3.6 18.8-7.4 21.8-8.6 2.9-1.1 10.5-4.9 16.7-8.5 6.2-3.6 11.5-6.5 11.7-6.5.3 0 4.4-2.5 9.2-5.6 4.8-3.1 15.5-8.8 23.7-12.8 14.4-7 35.6-19.4 57-33.4 5.5-3.6 22.4-14.3 37.7-23.8 15.2-9.5 35.2-22.6 44.5-29 9.2-6.5 20.9-14.6 25.8-18 9.4-6.5 18.5-14.5 18.5-16.2 0-.6.3-1.2.8-1.4 1.2-.5 8-14.4 10.1-20.6 1-3.1 2.4-8.4 2.9-11.7.6-3.3 2.3-11.2 3.8-17.5l2.6-11.5-.5-39.5c-.4-36.6-.7-40.8-3.2-57-2.6-16.8-2.7-18.3-1.9-40 .9-25.2 1.1-77.8.4-112-.3-12.4-.1-30.6.4-40.5.8-18.1-.1-32.6-2.3-34.8-1.5-1.5-5.9-1.5-11.1-.2zM495 406.8c6 .5 11 2 11 3.4 0 .6.7.8 1.5.4.8-.3 1.5-.1 1.5.4 0 1 11.4 9.8 14 10.8 1.4.5 4.5 3.5 8.1 7.9 1.3 1.7 3 4.8 3.3 6.3.1.3.4.9.8 1.5 2.5 4 4 17 2.6 23.6-.7 3.2-4.2 10.9-5 10.9-.4 0-.8.7-.8 1.5s-.4 1.5-1 1.5c-.5 0-1 .5-1 1.1 0 3.3-16.6 14.9-19.1 13.3-.5-.3-.9-.1-.9.4s-.6.9-1.2 1c-.7 0-3.8.4-6.8.7-6.2.8-6.1.8-11.5 0-12.7-1.7-26.2-11.3-32-22.6-4.5-8.6-6.2-20.9-4.1-28.9.4-1.4.8-3 1-3.5.1-.6.8-2 1.4-3.3.7-1.2 1-2.2.7-2.2-.3 0 1.2-2.6 3.3-5.8 7.2-10.5 17.1-17.8 25.2-18.4 1.7-.1 3.4-.6 3.7-1.1.3-.5.8-.5 1.2-.1.3.5 2.2 1 4.1 1.2zm163.7 116.4c3.8 1.2 7 2.6 7.1 3 .2.4.9.8 1.6.8 2.2 0 10.4 8.7 12.8 13.6 1.8 4 2.3 6.5 2.2 13.4 0 8-.5 10.1-3.8 15.8-1.4 2.4-7.2 8.1-12.1 11.7-1.5 1.1-3.4 2.6-4.2 3.4-2 1.9-8.3 5.3-8.3 4.5 0-.4-.7-.1-1.5.6-2.1 1.7-13.4 1.7-18.8 0-4.2-1.4-10.6-5.7-14-9.5-5.2-5.9-8.1-15-8.2-25.5 0-7.1.4-9.3 2.5-13.3 2.7-5.4 9.4-12.5 13.7-14.7 1.5-.8 3.6-2.1 4.6-2.9.9-.8 1.7-1.2 1.7-.9 0 .3 1.7 0 3.8-.8 5.5-2 13.3-1.7 20.9.8zM386.5 767c.3.5 1 1 1.6 1 .5 0 .9-.5.9-1 0-.6-.7-1-1.6-1-.8 0-1.2.4-.9 1z"/></svg>